<?xml version="1.0" standalone="no"?><!DOCTYPE svg PUBLIC "-//W3C//DTD SVG 1.1//EN" "http://www.w3.org/Graphics/SVG/1.1/DTD/svg11.dtd"><svg t="1540791056491" class="icon" style="" viewBox="0 0 1024 1024" version="1.1" xmlns="http://www.w3.org/2000/svg" p-id="65252" xmlns:xlink="http://www.w3.org/1999/xlink" width="200" height="200"><defs><style type="text/css"></style></defs><path d="M51.38944 962.176c-21.97504 0-40.24832-17.87392-40.24832-40.51456 0-21.97504 18.26816-40.2432 40.24832-40.2432h921.08288c21.97504 0 40.51456 18.26816 40.51456 40.2432 0 22.64064-18.53952 40.51456-40.51456 40.51456H51.38944zM801.29024 289.73056L511.60064 145.152 222.04928 289.73056h579.24096z m-137.56416 80.896v438.7584h142.59712V370.62656h-142.59712z m-222.95552 0v438.7584h142.19264V370.62656H440.77056z m-223.74912 0v438.7584h142.85312V370.62656H217.02144z m-123.13088 487.2192c-13.50656 0-24.09472-11.12576-24.09472-24.6272 0-13.24032 10.58816-23.8336 24.09472-23.8336h42.63424V370.62656H51.25632c-21.97504 0-40.24832-17.87392-40.24832-40.24832 0-17.34144 10.59328-32.3072 25.28768-37.33504l457.56416-229.30944c11.52-5.56032 25.01632-5.03296 36.40832 0l460.21632 231.02976c19.46112 9.40032 27.66848 33.76128 17.60256 53.75488a40.41216 40.41216 0 0 1-35.88096 21.97504h-85.00224v438.76352h42.368c13.7728 0 24.36096 10.58816 24.36096 23.82848 0 13.50656-10.58304 24.63232-24.36096 24.63232l-835.68128 0.128z" fill="#0073Ab" p-id="65253"></path></svg>