<svg xmlns="http://www.w3.org/2000/svg" viewBox="0 0 336.91 110"><defs><style>.cls-1{fill:#0073ab;}.cls-2{fill:#fff;}</style></defs><title>资源 4</title><g id="图层_2" data-name="图层 2"><g id="图层_1-2" data-name="图层 1"><circle class="cls-1" cx="55" cy="55" r="55"/><circle class="cls-2" cx="55" cy="55" r="42.5"/><circle class="cls-1" cx="55" cy="55" r="25"/><circle class="cls-2" cx="62.33" cy="42" r="10"/><circle class="cls-2" cx="52.33" cy="60" r="5"/><g id="I"><polygon points="125.4 27.51 125.4 39.73 125.4 52.09 125.4 88.97 137.71 88.97 137.71 27.51 125.4 27.51"/></g><g id="S"><path id="Shape" d="M187.65,52.1h-25a6.15,6.15,0,1,1,0-12.29h39l4.46-12.29H162.68a18.44,18.44,0,1,0,0,36.88h25a6.15,6.15,0,1,1,0,12.29H144.22V89h43.43a18.44,18.44,0,1,0,0-36.87Z"/></g><g id="e1"><polygon id="Shape-2" data-name="Shape" points="209.62 27.51 209.62 39.8 267.04 39.8 271.5 27.51 209.62 27.51"/><path id="Shape-3" data-name="Shape" d="M228.08,76.68h0a6.15,6.15,0,0,1-6.16-6.14h0V64.38H267L271.5,52.1H209.61V70.53h0a18.32,18.32,0,0,0,1.06,6.15A18.46,18.46,0,0,0,228.08,89h39l4.46-12.29H228.08Z"/></g><g id="e2"><polygon id="Shape-4" data-name="Shape" points="275.01 27.51 275.01 39.8 332.44 39.8 336.9 27.51 275.01 27.51"/><path id="Shape-5" data-name="Shape" d="M293.48,76.68h0a6.15,6.15,0,0,1-6.16-6.14h0V64.38h45.12L336.9,52.1H275V70.53h0a18.32,18.32,0,0,0,1.06,6.15A18.46,18.46,0,0,0,293.48,89h39l4.46-12.29H293.48Z"/></g></g></g></svg>