<svg xmlns="http://www.w3.org/2000/svg" viewBox="0 0 658.9 407.14"><defs><style>.cls-1{fill:#dfdfdf;}.cls-1,.cls-10,.cls-11,.cls-12,.cls-13,.cls-2,.cls-3,.cls-4,.cls-5,.cls-6,.cls-7,.cls-8,.cls-9{stroke:#fff;stroke-width:0.5px;}.cls-2{fill:#f7aa29;}.cls-3{fill:#fac916;}.cls-4{fill:#facb15;}.cls-5{fill:#f8ae26;}.cls-6{fill:#f04864;}.cls-7{fill:#facc14;}.cls-8{fill:#f9c518;}.cls-9{fill:#faca15;}.cls-10{fill:#f8b720;}.cls-11{fill:#f8b621;}.cls-12{fill:#fac816;}.cls-13{fill:#f9c419;}</style></defs><title>资源 1</title><g id="图层_2" data-name="图层 2"><g id="图层_1-2" data-name="图层 1"><path class="cls-1" d="M441.4,140.4l1.87,1.11,1.38-.39.38-1.32,1.44-.44,1-.89.37-2.34,1.54-.56.29-1,.86.78.55.09,1,0,1.38.62.56.36,1.32-.94.62.56.59-1.34,1.09.06.28-.43.19-1.18.79-1,1,.66-.2.89.55.14-.17,2.45.72,1,.64-.61.81-.29,1.14-1.31,1.26.22h1.89l.33.84-1.06.33-.93.54-2.1.34-2,.61-1.07,1.27.43,1.24.21,1.45-.91,1.23.08,1.12-.5,1.05-1.74-.09.72,1.93-1.16.74-.78,1.76.1,1.75-.72.82-.68-.27-1.4.38-.2.82h-1.36l-1,1.65-.06,2.48-2.38,1.21-1.27-.26-.37.64-1.09-.37-1.83.44-3.06-1.49,1.66-2.65-.15-1.88-1.39-.49-.14-1.85-.6-2.33.78-1.6-.8-.43.5-2.12Z"/><path class="cls-1" d="M359.31,261.66l.45,2.18.52,1.75.42.94.7,1.53,1.21-.24.6-.41,1,.41.27-.73.46-1.7,1.13-.11.1-.51h.93l-.16,1.05,2.22,0,0,1.84.37,1.13-.27,1.76.13,1.8.61,1.08-.1,3.47.45-.27.79.07,1.13-.44.83.17.19.91-.21,1.42.32,1.37-.27,1.09.16,1-3.81,0-.08,9.29,1.23,2.39,1.19,1.82-3.36,1.19-4.43-.41-1.27-1.4-7.41.13-.28.21L354.07,294l-1.19-.09-1.09.5-.88.56-.17-1.84.25-2.57.63-2.67.1-1.25.59-2.63.44-1.2,1.05-1.91.59-1.3.19-2.16-.1-1.66-.55-1-.49-1.77-.45-1.75.1-.61.56-1.16-.55-2.82-.37-2-.92-1.85.17-.57.75-.39.53.05.64-.35Zm-7.11-.56-.47.31-.49-2.2.74-1.26.55-.49.69,1-.67.61-.3.75Z"/><path class="cls-1" d="M367.11,122.28l-.23,1,.26,1.25.76.71,0,.77-.59.42-.11.95-.85,1.42-.31-.2,0-.64-1-1-.16-1.39.15-2,.25-.91-.31-.46-.12-.93.79-1.44.12.55.49-.26.39.78.44.3Z"/><path class="cls-1" d="M423.78,173.7l.33-.14.07.8,1.43-.46,1.51.08,1.1.09,1.25-2,1.36-1.87,1.16-1.8.35,1,.25,2.31h-.93l-.15,1.9.32.41-.83.58v1.19l-.53,1.21,0,1.18-.37.62-5.5-1.47-.7-3Z"/><path class="cls-1" d="M209.66,405.68l-1.74.15-.93-1-1.1-.08h-2v-6.52l.7,1.35.91,2.19,2.38,1.75,2.56.73Zm1-96.72,1.08,2.11.71-2.35,2.09.12.3.63,3.36,4.76,1.5.44,2.23,2.16,1.88,1.14.26,1.29-1.8,4.44,1.84.79,2.05.45,1.45-.47,1.66-2.24.3-2.58.91-.56.92,1.69,0,2.33-1.54,1.61-1.23,1.19-2.06,2.83-2.44,4-.46,2.34-.49,3,0,2.91-.4.65-.14,1.89-.13,1.52,2.32,2.5-.25,2,1.14,1.27-.09,1.43L223.83,356l-2.71,1.57-3.67.61-2-.29.38,1.74-.37,2.19.34,1.47-1.1,1-1.87.4-1.76-1.06-.71.76.26,2.9,1.23.88,1-.92.54,1.52-1.68.91-1.47,1.82-.27,2.94-.43,1.56h-1.73l-1.43,1.5-.52,2.19,1.8,2.14,1.75.59-.63,2.62-2.16,1.65-1.19,3.42-1.67,1.15-.75,1.37.59,3,1.22,1.69-.77-.15-1.7-.46-4.42-.39-.76-1.7,0-2.19-1.22.19-.64-1.06-.16-3.1,1.4-1.28.58-1.85-.21-1.48,1-2.49.67-3.87-.2-1.71.8-.55-.2-1.1-.85-.59.6-1.23-.83-1.11-.43-3.37.74-.59-.31-3.56.43-3,.49-2.61,1.1-1.06-.56-2.85v-2.68l1.38-1.91,0-2.44,1-2.85v-2.69l-.47-.53-.84-5,1.13-3-.17-2.83.65-2.65,1.2-2.74,1.29-1.82-.55-1.15.38-.94-.06-4.87,2-1.44.63-3-.22-.73,1.52-2.64Z"/><path class="cls-1" d="M409.16,124.5l2.54-.46.38.77.7.51-.37.73,1,1-.52.93.78.79.82.48,0,2-.66.09-.75-1.69v-.45h-.81l-.54-.78-.38.08-.72-.85-1.36-.73.18-1.42Z"/><path class="cls-1" d="M455.52,386.48l1.18.92,1.73.36.06.55-.51,1.33-2.81.19,0-1.55.27-1.2Z"/><path class="cls-2" d="M595.37,363.61l1.77,1,1-.4,1.43-.56,1.1.2.13,3.47-.63,1-.19,2.35-.64-.8-1.27,2-.38-.16-1.12-.09-1.13-2.5-.25-1.93-1.06-2.54,0-1.34ZM592,284.68l.66,2.29,1.17-1.1.61,1.24.88,1.14-.19,1.29.39,2.5.28,1.46.46.36.5,2.5-.18,1.51.59,2,2,1.53,1.29,1.39,1.23,1.27-.24.71,1,1.83.71,3.16.73-.64.74,1.27.45-.45.32,3.09,1.3,1.79.85,1.11,1.43,2.36.51,2.35,0,1.66-.13,1.81.87,2.48-.1,2.58-.32,1.35-.49,2.6,0,1.67-.36,2.09-.81,2.66L606.91,341l-.67,2.26-.61,1.44-.54,2.52-.71,1.46-.46,2.19-.24,2,.09.92-1,1-2,.11-1.69,1.2-.84,1.13L597,358.48l-1.51-1.29-1.12-.51.28-1.52-1,.55-1.6,2.11-1.58-.79-1-.46-1-.21-1.77-.84-1.18-1.8-.34-2.22-.43-1.48-.9-1.18-1.76-.35.6-1.42-.44-2.17-.89,2-1.63.54,1-1.62.28-1.69.71-1.43-.15-2.16L580,343.05l-1.14,1-.7,2.32-1.43-1.2.06-1.55-1.14-2.12-1-1.09.34-.67L572.68,338l-1.29-.08-1.76-1.42-3.27.28-2.37,1-2.08,1-1.75-.19-1.94,1.5-1.59.67-.35,1.53-.68,1.19-1.55.07-1.15.26-1.62-.53-1.31.32-1.26.13-1.09,1.56-.53-.13-.92.83-.88.93-1.33-.11h-1.23l-1.94-1.86-1-.55,0-1.67.91-.4.31-.66-.06-1,.22-2-.2-1.73-1-3-.3-1.67.08-1.66-.73-1.9,0-.86-.81-1.16-.23-2.29L537,322l-.25-1.25.8,1.26-.62-2.71.91.85.54,1.13,0-1.5-.91-2.3-.18-.92-.42-.87L537,314l.37-.72.25-1.46-.2-1.71.76-2.1.14,2.22.77-2,1.49-1,.89-1.25,1.4-1.07.83-.23.5.36,1.44-1.09,1.11-.32.28-.64.48-.27,1,.07,1.92-.85,1-1.3.47-1.56,1.07-1.48.08-1.17,0-1.59,1.28-2.48.77,2.52.78-.58-.65-1.38.57-1.42.81.63.22-2.22,1-1.44.44-1.15.92-.5,0-.82.8.34,0-.73.8-.42.88-.39,1.35,1.34,1,1.73,1.14,0,1.16.27-.39-1.6.88-2.34.82-.76-.29-.73.79-1.67,1.11-1,.94.35,1.54-.55,0-1.49-1.34-1,1-.42,1.21.72,1,1.2,1.54.75.52-.3,1.13.9,1.07-.84.69.25.43-.56.84,1.44-.49,1.56-.69,1.18-.63.1.21,1.17-.54,1.46-.65,1.44.13.82,1.45,1.61,1.41.94.94,1,1.32,1.73h.52l1,.75.28.9,1.75,1,1.21-1,.36-1.57.37-1.29.23-1.6.56-2.32-.25-1.41.13-.85-.21-1.67.24-2.2.35-.59-.28-1,.44-1.55.35-1.6,0-.83.68-1.09.52,1.43.13,1.83.46.35.08,1.23.66,1.49.14,1.65Z"/><path class="cls-1" d="M360.5,104l-.14,1.19h-1l.35.63-.61,1.88-.35.49-1.6.07-.92.66-1.51-.23-2.62-.75-.41-1-1.81.51-.21.56-1.11-.42-.93-.08-.83-.53.28-.71-.07-.52.55-.16.93.81.26-.77,1.61.12,1.31-.52.88.09.57.6.17-.5-.26-1.9.66-.37.64-1.35,1.36.94,1-1.19.64-.22,1.42.89.86-.15.84.55-.15.37Z"/><path class="cls-1" d="M411.75,128.45l.54.78h.81v.45l.75,1.69-1.25-.39-.92-1.35-.29-1.1Zm4.34-4.32.81.2.31-.74,1.09-1.18,1,1.54.93,2.07.85.14.56.79-1.51.23-.32,2.27-.31,1-.67.68,0,1.45-.46.15-1.14-1.53.63-1.44-.54-.86-.69.22-2.16,2.15,0-2-.82-.48-.78-.79.52-.93-1-1,.37-.73-.7-.51-.38-.77.45-.48,1.36.84,1,.17.25-.34-.9-1.58.47-.4.51.1Z"/><path class="cls-1" d="M383.11,257.63l-.12-3.52-.46-1.33,1.11.23.56-1.66,1,.19.11,1.15.39.66,0,.95-.45.61-.71,1.52-.66,1.06Z"/><path class="cls-3" d="M335.51,94.56l1.34.23,1.7-.61,1.16,1.28,1,.68-.21,2-.48.11-.2,1.64-1.6-1.33-.94.23L336,97.39l-.85-1.17-.85,0-.26-1Z"/><path class="cls-1" d="M334.37,226.22l-1.51.34-.45-2,.08-6.71-.37-.6-.07-1.43-.64-1-.56-.86.23-1.54.63-.33.37-1.28.89-.27.4-.87.61-.86h.66l1.39,1.68-.07,1,.41,1.73-.36,1.18.19.79-.89,1.81-.56.9-.34,1.84,0,1.86Z"/><path class="cls-1" d="M324.28,216.34l-1.25-.75-.86.11-.64.73-.82-.62-.32-1-.82-.64-.12-1.7.5-1.24,0-1,1.45-2.42.27-2,.5-.71.88.39.77-.59.25-.75,1.42-1.31.35-.91,1.71-1.21,1-.42.46.56h1.17l-.14,1.42.25,1.33,1,1.91.06,1.41,2.11.66,0,2-.4.87-.89.27-.37,1.28-.63.33-1.6-.06-.85-.23-.59.47-.81-.21-3.18.14,0,1.66Z"/><path class="cls-1" d="M498.94,180.13l0,2.09-.64-.44.12,2.35-.52-1.52-.11-1.49-.35-1.41-.76-1.7L495,177.9l.17,1.2-.57,1.62-.78-.59-.27.53-.52-.32-.71-.26-.28-2.4-.63-2.2.31-1.76-1.13-.78.41-1.06,1.14-1.09-1.32-1.55.65-2,1.45,1.26.87.14.16,2,1.74.4,1.7,0,1.05.5-.84,2.47-.82.17-.56,1.66,1,1.51.3-1.87h.5Z"/><path class="cls-1" d="M370.89,115.33l.53,1.2.71-.21,1.41.46,2.69.15.91-.74,2.15-.68,1.33,1.06,1.08.31-.95,1.21-.67,2.09.59,1.67-1.57-.39-1.86.92,0,1.45-1.66.28-1.29-1-1.46.8-1.35-.08-.13-1.93-.92-.94.3-.41-.2-.35.31-.93.7-.91-.89-1.26-.16-1.07Z"/><path class="cls-1" d="M187.65,175.12l-.45.15-.46-1.68-.68-.85.4-1.85.55.12.64,2.42Zm-.52-8.24-2,.47-.13-1.08.86-.23,1.21.09Zm1.5,0-.32,2.08-.34-.37,0-1.53-.82-1.15v-.34Z"/><path class="cls-1" d="M364.21,113.5h.66l-.46,1.28.88,1.12-.27,1.37-.43.13-.34.27-.59.68-.27,1.61-1.62-1.11-.69-1.22-.7-.65-.84-1.09-.4-.9-.9-1.37.38-1.21.66.67.4-.61.85-.06,1.57.48,1.26,0Z"/><path class="cls-1" d="M372.4,87.07l1.77,0,2-1.1.42-1.65,1.5-.94-.17-1.31,1.11-.49,2-1.13,1.93.73.26.72,1-.35,1.79.7.18,1.37-.39.79,1.15,1.91.74.53-.11.53,1.23.51.53.78-.71.64-1.48-.1-.35.27.43,1,.45,1.87-1.57.17-.56.64-.12,1.47-.73-.28L383,94.5l-.48-.68-.69.51-.69-.42-1.44-.06-2-.7-1.85-.23-1.42.06-1,.79-.87.11,0-1.3-.56-1.35,1.1-.6V89.47l-.51-1.11Z"/><path class="cls-1" d="M166.42,192.49v-.43l.22-.13.33.35.66-1.76.35,0v.43h.35l0,.79L168,193l.16.45-.19,1,.12.28-.21,1.48-.36.77-.33.09-.36,1h-.55l.14-3.3Z"/><path class="cls-1" d="M214.51,308.84l-2.09-.12-.71,2.35L210.64,309l-2.39-.71-1.52,2.64-1.32.4-.72-4-1-3.28.58-2.83-1-1.24-.24-2.11-.9-2,1.15-3.15-.79-2.45.42-1-.33-1.08.71-1.46,0-2.48.09-2.05.39-1-1.58-4.7,1.36.25.94-.06.41-.88,1.6-1.18,1-1.1L210,273l-.19,2.19.22,1.12-.15,2,2,2.62,2,.48.72,1.09,1.24.58.76.85,1.15,0,1.06.87.08,1.69.36.85,0,1.26-.53,0,.7,3.4,3.51.12-.27,1.69.2,1.15,1,.82.43,1.82-.32,2.3-.5,1.28.18,1.66-.57.6,0-.9-1.7-1.49-1.7,0-3.19.85-.88,2.57,0,1.57-.72,3.5Z"/><path class="cls-4" d="M224.06,332.73l2.44-4,2.06-2.83,1.23-1.19,1.54-1.61,0-2.33-.92-1.69-.91.56.36-1.69.25-1.73v-1.61l-.66-.53-.69.47-.68-.13-.21-1.12-.17-2.68-.34-.87-1.24-.79-.75.57-1.93-.56.12-4-.54-1.62.57-.6-.18-1.66.5-1.28.32-2.3-.43-1.82-1-.82-.2-1.15.27-1.69-3.51-.12-.7-3.4.53,0,0-1.26-.36-.85-.08-1.69-1.06-.87-1.15,0-.76-.85-1.24-.58-.72-1.09-2-.48-2-2.62.15-2-.22-1.12L210,273l-2.39.49-1,1.1-1.6,1.18-.41.88-.94.06-1.36-.25-1,.5-.83-.34.12-4.44-1.5,1.72-1.61-.08-.69-1.56-1.21-.17.39-1.25-1-1.78-.76-2.63.48-.53V264.7l1.11-.84-.18-1.58.47-1,.13-1.36,2.09-2,1.5-.56.25-.44,1.65.14.82-8,0-1.27-.29-1.67-.81-1.07v-2.12l1-.48.37.3.06-1.12-1.07-.3,0-1.83,3.56.07.6-1,.51.93.36,1.72.35-.36,1,1.54,1.42-.19.35-.89,1.36-.68.75-.48.21-1.24,1.31-.83-.1-.61-1.55-.25-.25-1.84.07-2-.82-.76.34-.27,1.35.37,1.45.73.53-.69,1.32-.45,2-1.09.67-1.11-.24-.82,1-.13.43.67-.24,1.28.63.44.42,1.36-.51,1-.29,2.49.47,1.48.13,1.35,1.13,1.37.9.14.2-.57.58-.13.83-.51.59-.78,1,.25.45-.1,1,.24.16-.6-.31-.58.18-.85.74.26.86-.3,1,.62.8.6.57-.79.41.12.25.82.88-.21.7-1.11.56-2.15,1.08-2.67.62-.14.45,1.62,1,5.11,1,.48,0,2-1.38,2.4.57.88,3.23.46.07,2.93,1.39-1.92,2.3,1,3,1.78.89,1.71-.3,1.62,2.13-.9L253.6,253l2.73-.11,2.7,2.42,2.34,3.27,1.41.84,1.56.12.66.92.62,3.72.3,1.77-.73,4.83-.93,1.91-2.58,4.06-1.17,3.3-1.35,2.53-.46.06-.51,2.15.13,5.47-.51,4.5-.19,1.93-.58,1.15-.32,3.9-1.85,3.81-.31,3-1.48,1.27-.43,1.75h-2l-2.88,1.12-1.29,1.3-2,.85-2.15,2.32-1.55,2.9-.27,2.18.3,1.61-.34,2.95-.42,1.42-1.28,1.61-2,5.14-1.61,2.32-1.24,1.37-.83,2.78-1.21,1.67-.51-1.65.81-1.39-1.06-2-1.43-1.61-1.88-1.87-.68.09-1.83-2.26Z"/><path class="cls-1" d="M538.32,231.28l.72-1.09,1.56-1.6-.08,1.44-.11,1.86-.87-.09-.38,1Z"/><path class="cls-1" d="M497.15,163.4l.74.93-.13,1.79-1.49.09-1.54-.2-1.15.46-1.66-1.11,0-.59,1.21-2.17,1-.74,1.31.68,1,.07Z"/><path class="cls-1" d="M376.36,298.62l.37.52.58,1.69,2.07,3.21.78.31v1l.54,1.85,1.41.45,1.17,1.32-2.59,2.15L379,313.33l-.61,1.95-.55,1.1-1,.23-.32,1.4-.19.91-1.17.68-1.49-.14-.87-.82-.77-.35-.89.68-.45,1.4-.87.88-.91,1.3-1.31.3-.41-1,.17-1.78-1.08-2.77-.49-.44v-8.52l1.8-.1.05-10.4,1.36-.1,2.82-1,.7,1.2,1.17-1.14h.55l1-.66.33.22Z"/><path class="cls-1" d="M357.39,222.82l1.51-.22.34-.75.3.06.46.66,2.3-1.12.78-1.14,1-1-.18-1,.52-.27,1.77.18,1.72-1.35,1.32-3.19.93-1.18,1.16-.5.21,1.25,1.05,1.83v1.19l-.3,1.22.12.91.63.84,1.39,1.28,1,1.18,0,.95,1.23,1.52.76,1.26.46,1.75,1.37,1.16.29.93-.6.31-1.17-.07-1.38-.31-.68.25-.27.71-.59.09-.72-.62-2,1.46-.83-.29L371,231l-.55,1.76-1.36-.57-1.34-.29-1.16-1.08-1.5-1-1,.94-.71,1.48-.16,2L362,234.1l-1.24-.49-1.09,1.55-1,2.72-.19-.85-.08-1.33-.84-.94-.68-1.51-.16-1-.86-1.52.15-.87-.18-1.23.14-2.26.44-.53Z"/><path class="cls-5" d="M213,108.57l1.33.39,1.7-.08-.9,1.2-.68.19L212.14,109l-.46-1,.69-.9Zm3.4-7.46-.89.05-2.37-.92-1.7-1.38.63-.25,2.4.73,1.87,1.22Zm-112.85,1.74-.92.41-3-1.33-.55-1-1.64-1L97.13,99l-1.88-.53-.7-1.59.16-.68,1.92.64,1.12.44,1.72.31.62,1L101,100l1.83,1.21Zm123.22-6.36L225.58,99l1.19-1,1.23.63-.64,1,1.62.8.84-.71,1.82.9-.57,2.14,1.28-.5.23,1.55.57,1.82-.77,2.57-.83.11-1.2-.55.4-2.39-.51-.37-2.12,2.53-1.09-.1,1.29-1.37-1.75-.71-2,.17-3.55-.09-.28-.86,1.14-1-.8-.79,1.54-1.76,1.89-4.65,1.13-1.66,1.59-1,.85.13-.35.79Zm-140-9.79h0l1.76-.23-.55,3.32,1.59,2.35h-.73l-1.1-1.34L87,89.44l-.92-.91-.34-1.28.11-.93ZM184.48,63l-.72,1.53-.81-.25-.48-.87.09-.2.71-.88.75.06Zm-4.81-1.61L177.53,63l-1.29-.07-.4-.79,1.36-1.35,2.51,0Zm-6-8.6.34,1.28.94-.45,1.06.77,2,1,2.1.91.16,1.39,1.35-.23,1.31,1-1.62.92-2.85-.7-1-1.31-1.81,1.55L173,60.38l-.63-1.71-2.48.28,1.59-1.44.23-2.3.62-2.67Zm17-4.36-2.05.15-.46-1.43L189,45.5l1.68-.4,1.43.81,0,1.25-.21.4ZM154.52,42.7l-1.14,1-2.47-.88-1.49.32-2.5-1.31,1.61-.91,1.28-1.27,1.94.83,1.1.53.55.55Zm9.33-1.14v3l2.44-2.29,2.19,1.88-.54,2.17,1.77,2,1.91-2.11,1.33-2.52.1-3.2,2.6.22,2.7.43,2.45,1.45.11,1.45-1.36,1.56,1.29,1.56-.23,1.42-3.58,2-2.54.45-1.89-.88L172,51.61l-1.76,2.46-.53,1.28-2.12,2-2.62.19-1.44,1.23-.12,1.9-2.13.37-2.24,2.37-2,3.29-.71,2.3-.1,3.39,2.69.49.82,2.73.86,2.22,2.56-.58,3.4,1.26,1.83,1.11L169.74,81l2.29.8L174,83l3,.17,2,.28-.3,2.53.57,2.94,1.32,3.27L183.3,95l1.41-1,1-3-1-4.61-1.29-1.54,2.93-1.37,2.07-2,1-2-.15-2L188.07,75l-2.22-2.2L188,69.72l-.8-2.64-.61-4.56,1.27-.67,3.14.79,1.88.28,1.51-.77,1.7,1,2.25,1.69.55,1.13,3.26.22-.05,2.45.61,3.69,1.67.46,1.33,1.72,2.65-1.62,1.75-3.22,1.21-1.36,1.42,2.61,2.38,3.72,2,3.5L216.43,80l2.43,1.65,1.64,1.67,2.92.76,1.17.93.72,2.47,1.42.39.73,1.1.13,3.28-1.33,1.1-1.31,1-3,1-2.3,2.4-3.09.47-3.91-.61-2.74,0-1.89.2-1.53,2.09-2.33,1.29-2.64,3.86-2.1,2.7,1.55-.48,2.94-3.84,3.84-2.43,2.74-.29,1.62,1.43-1.73,2,.58,3.15.6,2.2,2.38,1.46,3-.42,1.83-3.28.13,2.12,1.18,1.06-2.26,1.91-4.05,1.74L212,115.24l-2,2.1-1.39-.21-.07-2.47,3.18-2.41-2.93.1-2,.36-1.2-1.65v-4l-.81-.84-1.23.5-.61-.77-1.4,2.2-.56,2.27-.65,1.33-.78.45-.59.15-.18.72H195.3l-2.78,0-.83.54-1.93,2.1-.23.23L189,117.1h-3.48l-.83.46.3.57.16.89,0,.3-2.39,1.45-1.88.46-2.12,1.56h-.46l-.62-.46-.21-.42,0-.3.4-1,.86-1.61.53-1.73-.37-2.54-.39-2.65-1.91-1.37.23-.52-.27-.36H176l-.37-.46-.09-.69-.36.3-.49-.09.11-.29-.43-.29-.18-.77-1.42-.93-1.48-1-1.79-1.13-1.72-1.06-1.64.83-.6,0-2.25-.76-1.48.38-1.77-.91-1.87-.47-1.28-.18-.57-.49-.32-1.6h-.62v1.12H104.54L101,98.54,99.7,97.28l-3.31-1.21-1-2.58.26-1.79-2.34-1.24L93,88.09,90.75,86l0-1.5,1-1.41-.05-1.84-3.11-1.86L86.7,76l-1.14-2.09-1.67-1.32-1.23-1.2-1-1.51-1.84.95-1.78,1.63-1.62-1.92-1.28-1.28-1.78-.81-1.8-.09V40.93l3.41.7L77.89,43l1.91.27,1.61-1.22,2.22-.91,2.72.36,2.74-1.28,3-.73,1.26,1.21,1.36-.68.41-1.38,1.26.31,3.09,2.62,2.44-2,.25,2.22,2.25-.48.69-.85,2.22.17,2.8,1.23L114.37,43l2.52.5,1.79-.19,2.47,1.48-2.57,1.45,3.31.63,4.94-.34,1.56-.51,1.95,1.75,2-1.48L130.44,45l1.18-1,2.23-.13,1.46-.29,1.48.7,1.84,1.59,2-.23L143.9,47l2.84-.46,2.67.07-.21-1.82,1.63-.51,2.83,1V48l1.16-2.33,1.47.08.83-2.94-2-1.8L153,39.83l.15-3.23,2.16-2.12,2.41.47,1.85,1.29,2.48,3.29L160.45,41ZM120.65,31l-.91,1.37,4.07-.88,2.54,1.47,2.07-1.49,1.67,1,1.5,2.87.92-1.21-1.3-3,1.61-.43,1.82.47,2,1.18,1.15,2.84.57,2.06,3.07,1.45,3.3,1.38-.2,1.28-3,.23,1.17,1.12-.62,1.07-3.31-.46-3.15-.79-2.13.18-3.43,1-4.63.44-3.25.28-1-1.38-2.5-.8-1.62.33-2.25-2.31,1.22-.31,2.82-.5,2.58.13,2.39-.51-3.54-.68-3.91.23-2.59-.06-1-1.08,4.24-1.17-2.82,0-3.19-.77,1.54-2.19,1.27-1.16,4.9-1.78Zm17.68-.87L136.72,32l-2.85-2,.62-.41,2.45-.12Zm51.5.93.16.81-1.94-.09-2-.06-2,.39-.53-.18-2-1.55.08-1.05.88-.19,4.19.31Zm-18.7-.16,1.44,1.82,1.69-2.35,4.64-1.2,3.14,3-.27,1.91,3.62-.85,1.73-1.16,4.06,1.48,2.52,1.39.24,1.27,3.4-.66,1.91,1.86,4.41,1.15,1.59,1.18L207,42.47l-3.36,1.36,4.31,1.91,2.9.64,2.63,2.68,2.88.19-.57,2-3.21,3.39-2.25-1.25-2.88-2.81-2.37.37-.23,1.67,1.92,1.7,2.48,1.34.75.78,1.19,2.89-.63,2.1-2.31-.79-4.59-2.34,2.59,2.52,1.9,1.76.3,1-5-1.17-3.92-1.7-2.22-1.42.64-.82L195.25,57l-2.66-1.42,0,.85-5.29.47-1.55-1,1.2-2.15,3.44-.05,3.76-.37-.61-1,.64-1.46L196.58,48l-.5-1.29-.71-1-2.8-1.42-3.7-1,1.17-.74-1.94-1.82-1.61-.17-1.44-1-1,.86-3.32.38-6.66-.65-3.87-.86-3-.44-1.52-1,1.91-1.33h-2.6l-.58-3L165.88,31l1.88-1.19,4.72-.78Zm-25.23-2,2.18.61,3.26-.37.48.85-1.71,1.4,2.77,1.26-.33,2.63-3,1.13-1.76-.24L146.53,35,142,32.76l0-.93,3.73.36-2-1.91ZM159,32l-2,2.18L155,34.07l-1.14-2.56,0-1.45,1-1.24,1.81-.8,3.81.1,3.49.71-2.73,2.6Zm-49.86,4.05-4.81,1.41-1-1.28-4.22-1.54.78-1.24,1.27-2.13,1.59-1.92L101,27.56l6.18-.46,2.61.61,4.67.16,1.78.85,2,1.23-2.3.74-4.48,2.05-2.27,2Zm49.1-10.5-1,1.13-2.66-.22-2.22-.76,1-1.31L156,23.6l1.6,1Zm-8.94-5.08,1.4,1.35.06,1.5-.83,2.17-3,.3-2-.47,0-1.7-3,.22-.12-2.26,2,.09,2.75-1,2.57.17ZM131.54,22l.72,1,1.63-.49,1.92.13.32,1.43L135,25.48l-6.19.45-4.61,1.26-2.78.07-.23-1L125,25l-8.26.35-2.56-.52,2.5-2.85,1.72-.82,5.15,1,3.25,1.73,3.2.22-2.62-2.79L129,20.25l1.89.34Zm24.74-2.62,2,.94h3.6l1.58,1-.42,1.1,2.1.66,1.16.69,2.47.13,2.67.24,2.91-.63,3.72-.25,3,.21,2,1.1.41,1.21-1.14.78-2.73.63-2.34-.35-5.25.45-3.75.05-3-.36L160.42,26l-.63-1.6-.22-1.45-1.84-1.27-3.78-.36-2.12-.9.69-1.2Zm-39.35-1.6L116.68,20l-1.41,1-1.71.14-3.4,1.25-2.93.45-2.48-.63h0l3.1-2.18,3.76-1.89,2.81,0Zm40.89.37-.83.08L153.57,18l-.49-.82,3.68,0,1.28.54Zm-29.9-.52-3.41.84-2.71-.94,1.48-.93,2.67-.3,2.58.46Zm1-2.64-2.23.57h-3l0-.42,1.88-.87,1,.13Zm25.3,1.59-2.71.6L150,16.49l-.78-1.1-.14-1.21,2.37.12,1.07.19,2.19,1Zm-7.74-.78.71,1.22-3-.33-3-.95-4.07-.11,1.77-.87-2.21-.7-.13-1.12,3.59.4,4.95,1.07Zm23.85-3.9,2.2.94L170,13.7l-3.38,2.2-3.24.21-3.79-.37-2-1.19,0-1.06,1.45-.78-3.34,0-2-1-1.16-1.32,1.27-1.3,1.27-.89L157,8l-.8-.67,4.25-.15,2.34,1.56,3.08.63,3,.55ZM204.17,1.82l4.89.23,3.93.37,3.35.79-.08.78-4.46,1.27-4.42.59-1.65.65,4,0-4.32,1.77-3,.83-3.13,2.39L195.5,12l-1.17.6-5.54.31,2.52.37-1.26.52,1.51,1.44-1.74,1L187,17l-.87,1.14-2.55.87.26.66,3.13-.11,0,.71-4.89,1.75-4.78-.81L172,21.7l-2.72-.35-3.46-.15-.23-1.4,3.38-.66L168,17l1.12-.21L174,18.08l-2.49-1.87-3-.56,1.48-1.13,3.24-.7.52-1-2.58-1.14-.78-1.5,5,.13,1.44.32,2.85-1.06-4.12-.34-6.4.19L166,8.4l-1.52-1.18-2.14-.86-.4-1,2.72-.56,2.14-.09,3.59-.47,2.69-1.09,2.27.15,2,.82,1.39-1.58,2.41-.47,3.28-.32L190,1.63l1,.32,5.28-.49,4,.19Z"/><path class="cls-1" d="M347,105.72l.07.52-.28.71.83.53.93.08-.15,1.2-.81.49-1.35-.37-.4,1.18-.87.09-.32-.46-1,1-.88.14-.79-.63-.63-1.28-.87.46,0-1.32,1.34-1.64-.06-.74.83.27.5-.5,1.56,0,.38-.63Z"/><path class="cls-1" d="M203.93,398.19v6.52h2l1.1.08-.61,1.18-1.57.91-.9-.09-1.08-.24-1.33-.88-1.92-.42-2.3-1.63L195.42,402l-2.52-3.27,1.51.61,2.57,2,2.43,1,.94-1.34.59-2,1.69-1.21Zm.76-90.93.72,4,1.32-.4.22.73-.63,3-2,1.44.06,4.87-.38.94.55,1.15-1.29,1.82-1.2,2.74-.65,2.65.17,2.83-1.13,3,.84,5,.47.53v2.69l-1,2.85,0,2.44-1.38,1.91v2.68l.56,2.85-1.1,1.06-.49,2.61-.43,3,.31,3.56-.74.59.43,3.37.83,1.11-.6,1.23.85.59.2,1.1-.8.55.2,1.71-.67,3.87-1,2.49.21,1.48-.58,1.85-1.4,1.28.16,3.1.64,1.06,1.22-.19,0,2.19.76,1.7,4.42.39,1.7.46-1.63,0-.88.72L199.88,399l-.29,2.73-.77.07-2.06-.95-2.09-2h0l-2.28-1.67-.57-1.85.52-1.71-.92-1.94-.23-5,.78-2.81,1.93-2.26-2.78-.85,1.74-2.58.62-4.85,2,1,1-6-1.23-.78-.57,3.64-1.15-.41.57-4.18.62-5.41.84-2-.53-2.85-.15-3.29.77-.09,1.12-4.72,1.26-4.67.77-4.35-.42-4.37.55-2.41-.22-3.6,1.07-3.57.33-5.65.59-6.06.57-6.53-.13-4.78-.38-4.11.94-.75.49-1.5.9,2,.24,2.11,1,1.24L203.7,304Z"/><path class="cls-6" d="M531.25,190l-1.58,1.4-1.5-.91-.05-2.51.9-1.32,2-.82,1.05.07.41,1.11-.8,1.28Zm31.67-90.76,3.18.93,2.17,2.08.74,2.74h2.78l1.59-1.15,3-.86-1,2.63-.71,1.07-.63,3.2-1.23,2.84-2.22-.52-1.57,1,.48,2.5-.26,3.45-.93.08v1.48L567.2,119l-.73,1.64-2.82,1.26.29,1.54-1.58-.11-.87-.92-1.26,2.07-2,1.57-1.49,1.87-2.56.85-1.35,1.36-2,.8,1-1.35-.38-1.14,1.45-2-1-1.53-1.59,1-2.06,2-1.13,1.89-1.79.14-.93,1.36,1,2,1.5.48.06,1.31,1.45.85,2-2.08L552,135l1.18.08.3,1.53-2.59.82-.85,1.58-1.78,1.46-.94,2,2,1.6.72,2.87,1.11,2.68,1.24,2.24,0,2.17-1.15.8.44,1.56,1.08.91-.28,2.38-.46,2.31-1,.26-1.34,3.16-1.48,3.83-1.7,3.48-2.52,2.69L541.4,178l-2.06.34-1.12,1.3-.63-.95-1,1.45L534,181.57l-1.94.45-.62,3.08-1,.17-.48-2.12.43-1.13-2.45-.93-.86.48-1.84-.76-.87-1.19.29-1.68L523,177.4l-.88-1.1-1.56,1.56-1.78.34h-1.46l-1,.71-.95.43.28,3.34-1-.08-.16-.69-.05-1.21-1.34.85-.79-.54-1.36-1.1.53-2.43-1.16-.57-.44-2.69-1.93.48.22-3.46,1.73-2.44.07-2.41-.05-2.23-.8-.7-.61-1.72-1.07.22-2-.44.62-1.23-.86-1.82-1.3,1.23L502.4,159l-2.11,1.86L498.63,163l-1.47.37-.8-.79-1-.07-1.31-.68-1,.74-1.21,2.17-.15-2.3-1.12.61-2.13-.29-2.07-.67-1.48-1.28-1.42-.58-.61-1.4-1-.42-1.85-1.9-1.47-.9-.76.7-2.54-2-1.8-1.85-.51-3.22,1.31.39.06-1.49-.73-1.49.19-2.38-2-3.42-3-1.18-.54-2.24-1.35-1.36-.33-.84-.27-1.66.06-1.14-1.11-.66-.6.29-.46-2.7.52-.67-.25-.68,1.75-1.38,1.26-.57,1.94.39.69-1.86,2.35-.35.65-1.16,2.88-1.58.26-.66-.15-1.66,1.25-.76-1.65-5.07,3.62-1.17.94-.65,1.32-5.23,3.63,1,1-1.32.09-2.93,1.52-.27,1.39-1.94.72-.24.48,2,1.54,1.55,2.61,1.1,1.26,2.35-.7,3.41.66,1.27,2.17.5,2.46.41,2.21,1.82,1.13.32.83,2.69,1.07,1.73,2-.07,3.77.65,2.43-.41,1.81.43,2.71,1.77h2.21l.81.91,2.13-1.57,3-1,2.74-.11,2.14-1,1.31-1.56,1.28-1-.3-1-.58-1.12,1-1.88,1,.26,1.88.59,1.82-1.55,2.79-1.13,1.34-1.93,1.29-.83,2.66-.39,1.44.33.2-1-1.66-2-1.47-.93L544,105.22l-1.8-.45-1,.37-.47-1.19L542,101l.89-2.2,2.2,1.1,2.58-1.85,0-1.28,1.65-3.1,1-.94,0-1.61-1-.69L550.75,89l2.27-.53,2.42-.08,2.74.87,1.61,1.08,1.13,2.94.69,1.26.64,1.79Zm-10.75,74.07-1.1,4.68-.78,2.4-1-2.47-.21-2.16,1.08-2.87,1.46-2.21.83.87Z"/><path class="cls-1" d="M324.23,229.91l-.83,0-1.28-.57-1.17,0-2.17.51-1.27.84-1.81,1.07-.35-.08.14-2.4.17-.37-.06-1.15-.77-1.22-.58-.2-.53-.8.4-1.3-.18-1.41.08-.85h.29l.11-1.27-.14-.56.17-.41.68-.35-.45-2.34-.42-1.21.15-1,.36-.23.24-.27.51.44,1.41,0,.34-.85.32.06.53-.33.28,1.25.43-.37.75-.43.82.64.32,1,.82.62.64-.73.86-.11,1.25.75.49,4.15-.77,2.45-.48,3.3.79,2.52Z"/><path class="cls-1" d="M353.36,237.87l-.23-.16-1.08.38-1.11-.39-.87.19-3-.07.27-2.31-.71-1.93-.83-.5-.37-1.31-.47-.42,0-.81.47-2.07.87-2.82.53,0,1.09-1.71.69,0,1,1.2,1.26-1,.17-1.21.41-1.18.28-1.48,1-1.2.37-2,.39-.65.26-1.52.48-1.86,1.54-2.26.1-1,.2-.53-.72-1.16.06-.93.52-.17.73,1.87.12,1.94-.07,1.94,1,2.65-1,0-.52.21-.83-.29-.4,1.38,1.08,1.7.8.5.26,1.21.58,2-.29.79-.92,3-.44.53-.14,2.26.18,1.23-.15.87.86,1.52.16,1,.68,1.51.84.94.08,1.33.19.85-.13,1.58-1.45-.69-1.48-.77Z"/><path class="cls-1" d="M385.84,234.25l-.11,3.41.73.4-.59,1-.7.78-.7,1.52-.38,1.36-.1,2.34-.42,1.12,0,2.2-.53.81L383,251l-.25.23-.17,1.6.46,1.33.12,3.52.33,2.69-.18,1.52.37,1.69,1.06,1.64,1,3.68-.72-.3-2.46.49-.49.35-.52,1.86.41,1.29-.32,3.46-.23,2.93.49.52,1.28,1.14.5-.53.15,3.15-1.4,0-.75-1.61-.67-1.24-1.4-.41-.41-1.53-1.12.92-1.46-.41-.61-1.33-1.16-.27-.86.07-.1-.91-.63-.07-.83-.17-1.13.44-.79-.07-.45.27.1-3.47-.61-1.08-.13-1.8.27-1.76-.37-1.13,0-1.84-2.22,0,.16-1.05h-.93l-.1.51-1.13.11-.46,1.7-.27.73-1-.41-.6.41-1.21.24-.7-1.53-.42-.94-.52-1.75-.45-2.18-5.4,0-.64.35-.53-.05-.75.39-.26-.91.47-.31.06-1.27.3-.75.67-.61.48.3.63-1.12,1,0,.12.83.68.52,1.08-1.83,1.07-1.43.46-.93-.06-2.4.79-2.84.84-1.5,1.2-1.41.21-.93,0-1.07.3-1L362,242l.23-2.59.36-1.82.55-1.56.11-1.76.16-2,.71-1.48,1-.94,1.5,1,1.16,1.08,1.34.29,1.36.57L371,231l.25-.23.83.29,2-1.46.72.62.59-.09.27-.71.68-.25,1.38.31,1.17.07.6-.31,1.11,2.41.82.35.49-.49.85.19,1-.62.43,1.25Z"/><path class="cls-1" d="M353.22,258.45l-.69-1-.55.49-.74,1.26-1.5-3.09,1.39-1.61-.69-1.93.63-.73,1.23-.36.15-1.29,1,1.4,1.61.12.56-1.38.23-1.94-.2-2.28-.87-1.73.79-3.38-.46-.58-1.36.24-.51-1.51.13-1.27,2.31.11,1.48.77,1.45.69.13-1.58,1-2.72,1.09-1.55,1.24.49,1.18.16-.11,1.76-.55,1.56-.36,1.82L362,242l.1,1.65-.3,1,0,1.07-.21.93-1.2,1.41-.84,1.5-.79,2.84.06,2.4-.46.93-1.07,1.43L356.12,259l-.68-.52-.12-.83-1,0-.63,1.12Z"/><path class="cls-1" d="M191.6,244.94l-.78-.69-.9-1-.52.46-1.55-.41-.45-1.26-.34,0-1.83-1.67-.25-.91.68-.22-.08-1.46.43-1.06.91-.2.77-1.83.7-1.53-.67-.69.35-1.69-.41-2.67.39-.77-.29-2.47L187,223.4l.23-1.42.59.21.34-.87-.42-1.72.22-.43.94.09,1.37-2,.75-.31,0-1,.34-2.47,1-1.36,1.15-.06.15-.61,1.43.24,1.44-1.47.71-.65.89-1.41.65.18.48.77-.36,1-1.17.49-.46,1.46-.71.84-.53,1.09-.22,2.08-.51,1.71.94.2.23,1.34.4.64.14,1.18-.22,1.08.06.61.45.24.44,1,2.35-.28,1.06.37,1.29,2.51.74-.31,1.32.16,1-.33.65.5-.33,1.57-.41,1-.14,2.09.37,1.94.52.87.06.65-.93,1.45.66.64.49,1,.56,2.91-.35.36-.36-1.72-.51-.93-.6,1-3.56-.07,0,1.83,1.07.3-.06,1.12-.37-.3-1,.48V245l.81,1.07.29,1.67,0,1.27-.82,8-.92-1.55-.55-.07,1.18-3-1.4-1.37-1.1.25-.66-.51-1,.77-1.36-.37-1.08-3.06-.85-.75L193.3,246l-1.22-1.38Z"/><path class="cls-1" d="M177.71,220.48l-1-.65-.37-.61.21-.51-.07-.65-.51-.7-.72-.57-.63-.37-.12-.85L174,215l.12.85-.36.7-.42-.81-.59-.29-.25-.59V214l.24-.92-.52-.41.42-.56.28-.38,1.2.77.42-.38.58.24.3.6.54.19.44-.62.46,1.59.71,1.18.86,1.25-.71.26V218l.38.43-.27.35.07.53-.15.59Z"/><path class="cls-1" d="M179,176.78l1.58.21,1.44,0,1.72,1,.73,1.07,1.71-.33.65.69,1.55,1.81,1.14,1.32.6,0,1.09.6-.13.82,1.35.12,1.38,1.2-.22.68-1.22.37-1.23.15-1.26-.23-2.62.28,1.23-1.63-.75-.76-1.18-.2-.63-.84-.43-1.66-1,.11-1.71-.78-.55-.61-2.38-.45-.64-.57.69-.73-1.79-.15-1.31,1.52-.76,0-.26.71-.91.32-.78-.28,1-.9.4-1.05.83-.65.93-.57,1.38-.28Z"/><path class="cls-1" d="M389.31,141.89l.13,0,.26-.7,1.32,0,1.66-.87-1.24,1.24.13.55-.2-.1-.35.22-.27-.06-.09.11,0-.3-.13-.18-.35,0-.5.25Z"/><path class="cls-1" d="M391.58,142.12l.06.23-1.87,1.19-.9-.38-.43-1.17.87-.11.34.15.5-.25.35,0,.13.18,0,.3.09-.11.27.06.35-.22Z"/><path class="cls-7" d="M360.47,102.59l-.84-.55-.86.15-1.42-.89-.64.22-1,1.19-1.36-.94-1-1.26-.93-.7-.19-1.23-.32-.87,1.33-.64.68-.73,1.31-.57.46-.56.48.34.82-.3.87.94,1.37.25-.11.8,1,.6.27-.75,1.25.33.17.91,1.36.18.84,1.44h-.55l-.28.53-.42.13-.12.66-.35.14,0,.27-.62.3-.81,0Z"/><path class="cls-8" d="M347.6,83.94l0,1.13,1.85.68,0,1,1.86-.55,1-.8,2.06,1.15.86.93L355.7,89l-.51.78.66,1,.45,1.56-.14,1,.75,1.86-.82.3-.48-.34-.46.56-1.31.57-.68.73-1.33.64.32.87.19,1.23.93.7,1,1.26-.64,1.35-.66.37.26,1.9-.17.5-.57-.6-.88-.09-1.31.52-1.61-.12-.26.77-.93-.81-.55.16-2-.89-.38.63-1.56,0,.23-2.08.92-2-2.64-.54-.86-.76.1-1.28-.37-.66.21-2-.31-3.06h1.1L342,92l.46-2.67-.34-1,.36-.62,1.53-.16.34.64,1.24-1.44-.42-1.09L345,84l1.38.39Z"/><path class="cls-1" d="M408.24,207.41l.43.9-.06,1.21-1,.7.79.8-.67,1.56-.41-.52-.44.21-1,0,0-.89-.14-.81.62-1.37.64-1.29.78.25Z"/><path class="cls-3" d="M352.66,82.11l-1.1,2.37-1.91-1.65-.26-1.21,2.68-1Zm-3.25-2.48-.45,1.1-.54-.32-1.32,2.1.5,1.42-1.17.44L345,84l-.74-1.62-.06-3,.3-.79.52-.88,1.61-.18.64-.81,1.47-.82-.06,1.5-.54,1,.22.82Z"/><path class="cls-1" d="M198.3,186.93l.23-.5H200l1.08.75.48-.07.33,1,1-.06-.06.87.81.11.9,1.07-.68,1.19-.87-.64-.84.12-.6-.14-.33.53-.7.18-.28-.71-.6.42-.73,2-.47-.46-.09-.84,0-.79-.47-.88.45-.49.14-1.12Z"/><path class="cls-1" d="M351.4,176l-6.27,5.57-5.3,5.74-2.58,1.3-2,.29,0-1.86-.85-.47-1.14-.84-.43-1.37-6.17-6.37-6.17-6.37-6.88-7.07,0-.57v-.2l0-3.46,3-2.15,1.83-.45,1.5-.78.7-1.46,2.14-1.16.08-2.16,1.06-.25.83-1.08,2.39-.49.34-1.13-.48-.62-.63-3.08-.11-1.78-.69-1.87,1.76-1.6,2-.51,1.15-1.2,1.76-.89,3.1-.52,3-.24.92.43,1.72-1.15,2,0,.74.68,1.25-.18-.37,1.5.29,2.78-.43,2.41-1.13,1.63.16,2.2,1.5,1.74,0,.71,1.13,1.18.78,5.24.59,2.58.1,1.36-.32,2.38.13,1.33-.23,1.6.16,1.84-.73,1.22,1.08,2.13.07,1.25.65,1.63.86-.54,1.44,1.36Z"/><path class="cls-1" d="M182.59,254.44l1-2.18-.4-1.28-.7,1.36-1.1-1.28.37-.82-.31-2.65.64-.44.34-1.82.69-1.88-.13-1.19,1-.63,1.26-1.16,1.83,1.67.34,0,.45,1.26,1.55.41.52-.46.9,1,.78.69.26,2.22-.57,1.9-2,3.06-2.2,1.15L186,255.8l-.35,2-1,1.2-.77-1.47-.74-.32-.76.23,0-1.07.52-.7Z"/><path class="cls-1" d="M393.32,158.35l-.51,1.17-.39,2.21-.5,1.52-.43.51-.61-.94-.83-1.3-1.3-4.19-.19.26.76,3.08,1.12,2.94,1.38,4.55.68,1.59.59,1.65,1.64,3.23-.36.51.06,1.9,2.13,2.62.32.6h-21.7V159.12l-.55-2.35.47-1.8-.28-1.25.66-1.4,2.43,0,1.76.77,1.82.86.85.45,1.41-.93.75-.84,1.61-.24,1.3.37.5,1.45.42-1,1.47.69,1.43.17.9-.74Z"/><path class="cls-1" d="M406.91,207.87l-.63-.94-.75-1.71-.81-.94-.47-1-1.59-1.17-1.25,0-.44-.61-1.07.69-1.11-1.33L398.2,203l-2.13-.61-.19-1.17.79-4.29.18-1.94.58-.9,1.35-.48.93-1.67,1.06,3.38.5,2.68,1,1.42,2.5,2.76,1,1.66,1,1.68.57,1,.9.88-.55.71Z"/><path class="cls-9" d="M312.93,122.2l.09-2.08-.75-1.27,2.59-2.11,2.24.53,2.46,0,1.95.5,1.52-.15,3,.1.73,1.14,3.37,1.33.66-.63,2.06,1.32,2.12-.38.1,1.7-1.73,1.94-2.34.62-.16,1-1.12,1.62-.7,2.38.71,1.67-1.06,1.3-.4,1.9-1.38.58-1.29,2.25-2.32,0-1.74-.06-1.15,1-.7,1.1-.89-.24-.68-1-.52-1.68-1.71-.45-.15-1,.68-1.09.25-.79-.63-.87.5-1.92-.73-1.75.79-.24.07-1.38.3-.43,0-2.28.85-.79-.51-1.46-1.07-.1-.31.37h-1.08l-.46-1.43-.75.43Z"/><path class="cls-1" d="M373.92,75.74l.21-1.72-.67.37-1.16-1-.16-1.68,2.31-.81,2.3-.42,2,.48,1.89-.09.28.51L379.6,73l.54,2.72-.78.93h-1.51l-1.57-1.08-.8-.36Z"/><path class="cls-1" d="M398.78,200.81l1.11,1.33,1.07-.69.44.61,1.25,0,1.59,1.17.47,1,.81.94.75,1.71.63.94-.64,1.29-.62,1.37.14.81,0,.89,1,0,.44-.21.41.52-.4,1,.68,1.61.67,1.41.7,1,6,3.47,1.54,0-5.17,8.76-2.38.13-1.63,2.06-1.17.05-.5.92h-1.25l-.74-1-1.67,1.22-.54,1.22-1.22-.23-.4-.34-.43.08-.58,0-2.32-2.48h-1.27l-.62-1v-1.64l-1-.49-1.08-3.18-.84-.68-.32-1.17-.93-1.42-1.12-.21.62-1.66,1-.07.27-.89,0-2.63.54-3.06.87-.82.18-1.19.78-2.23,1.1-1.45.74-2.88.29-2.51,2.13.61Z"/><path class="cls-1" d="M381.74,42.82l-.27,2,2.8,1.95L382.59,49l2.13,3.32-1.23,2.5L385.13,57l-.75,1.9,2.71,2-.69,1.49-1.7,1.69-3.92,3.73-3.32.23-3.22,1.07-3,.62-1.06-1.59-1.77-1,.41-2.88L368,61.68l.87-1.7,1.66-1.83L374.68,55l1.22-.61-.19-1.23-2.54-1.38-.62-1.14,0-4.5-2.85-2-2.44-1.43,1.1-.77,2,1.54,2.39-.14,2,.71,1.74-1.29.9-2.14,2.84-1,2.35,1.16Z"/><path class="cls-1" d="M655.68,295.13l.63.84-.3,1.52-1.13.4-1-.36-.18-1.28.71-1,.83.36Zm1.81-1.57-1.17.62-.23-1.09.91-.6.58-.16,1.07-.91v1.43ZM.4,292.68l-.15.16v-1.43l.38-.14Z"/><path class="cls-1" d="M217.52,395.9l2.19-1.75,1.55.73,1.1-1.17,1.46,1.31-.55,1-2.47.88-.82-1-1.55,1.31Z"/><path class="cls-3" d="M233.33,237.18l-.7,1.11-.88.21-.25-.82-.41-.12-.57.79-.8-.6.46-1.25.16-1.33.32-1.25-.71-1.72-.14-2,1-2.51.62.32,1.35.69,1.94,2.46.3,1.2L233.89,235Zm113.6-115.77-.6,2.26-.83-.59-.42-2,.37-1.09,1.18-1.12ZM336,97.39l1.28,1.38.94-.23,1.6,1.33.41.25.53-.06.86.76,2.64.54-.92,2-.23,2.08-.5.5-.83-.27.06.74-1.34,1.64,0,1.32.87-.46.63,1.28-.08.83.54,1.1-.63.89.47,2.26,1,.37-.21,1.27-1.66,1.65-3.61-.79-2.66.95-.21,1.76-2.12.38-2.06-1.32-.66.63-3.37-1.33L326,117.7l.95-1.75.35-5.82-1.89-3.06L324,105.59l-2.8-1.12-.18-2.13,2.37-.64,3.07.75-.58-3.31,1.73,1.25,4.26-2.28.55-2.39,1.6-.59.26,1,.85,0Z"/><path class="cls-1" d="M349.74,256.11l-1.88-2.95-1.21-2.41-1.11-3,.06-1,.4-.93.44-2.13.37-2.17.62-.17,2.66,0,0-3.51.87-.19,1.11.39,1.08-.38.23.16-.13,1.27.51,1.51,1.36-.24.46.58-.79,3.38.87,1.73.2,2.28-.23,1.94-.56,1.38-1.61-.12-1-1.4-.15,1.29-1.23.36-.63.73.69,1.93Z"/><path class="cls-10" d="M319.09,85.19l-1,2-1.38-.6-1.13,0,.38-1.56-.38-1.56,1.53-.12ZM324,73.28l-2,3.16,1.86-.4,2,0-.48,2.38-1.64,2.62,1.89.19.15.31L327.41,85l1.25.47,1.13,3.33.52,1.15,2.22.56-.22,1.87-.93.86.73,1.51-1.65,1.53-2.45,0-3.11.8-.85-.57-1.21,1.37-1.69-.33-1.28,1.11-1-.58L321.57,95l1.64-.63h0l-2.86-.49-.52-1.16,1.91-.91-1-1.57.35-1.91,2.72.26h0l.27-1.7-1.22-1.8,0,0-2.22-.51-.44-.79.66-1.3-.6-.8-1,1.38-.11-2.81-.92-1.49.66-3,1.42-2.37,1.46.23Z"/><path class="cls-1" d="M405.45,123.21l.27-1.25-.46-2-1.06-1.08-1-.34-.67-.89.22-.34,1.55.5,2.69.47,2.49,1.4.32.54,1.11-.46,1.71.61.56,1.2,1.15.68-.47.4.9,1.58-.25.34-1-.17-1.36-.84-.45.48-2.54.46-1.76-1.43Z"/><path class="cls-1" d="M331.39,227.18l-2.87,1.71-1,1-1.65.85-1.63-.83.08-1.15-.79-2.52.48-3.3.77-2.45-.49-4.15-.25-2.2,0-1.66,3.18-.14.81.21.59-.47.85.23-.13.91.76,1.51v2.12l.17,2.3.46,1.07-.4,2.63.15,1.45.49,1.85Z"/><path class="cls-1" d="M314,222.05l-.52-.07-.37,1.18h-.52l-.36-.62.12-1.17-.76-1.79-.48.33-.39.07-.5.17,0-1.07-.29-.76.06-.85-.4-1.23-.51-1h-1.46l-.43.55-.5.07-.31.63-.21.81-1,1.28-.8-1.73-.71-1.14-.47-.38-.46-.58-.21-1.29-.27-.64-.53-.48.81-1.42.56.05.48-.49h.4l.29-.39-.16-1,.2-.31,0-1,.88,0,1.31.71.4-.07.14-.32,1,.23.26-.16.11,1.07h.29l.48-.39.3.1.51.74.78.23.5-.63.59-.39.44-.41.37.08.41.64.22.81.75,1.22-.37.75-.07,1,.39-.29.23.34-.1.87.56.84-.36.23-.15,1,.42,1.21.45,2.34-.68.35-.17.41.14.56-.11,1.27Z"/><path class="cls-1" d="M298.65,206.09l.23-1.3,2-.08.41-.69.58,0,.72.72h.57l.6-.49.37.84-.79.66-.79-.05-.78-.62-.68.67-.33,0-.44.41Z"/><path class="cls-1" d="M301.78,212.26l-1-1.22-.77-.19-.42-.82v-.44l-.56-.62-.12-.62,1-.48.61.09.49-.33,3.38.12,0,1-.2.31.16,1-.29.39h-.4l-.48.49-.56-.05Z"/><path class="cls-1" d="M346.81,241.54l-.34-.44.63-3.28,3,.07,0,3.51-2.66,0Z"/><path class="cls-7" d="M372.79,140.24l1,1,1.42-.17,1.36.21,0,.51,1-.35-.23.86-2.63.25,0-.48-2.23-.57Zm5.31-17.1-.57,1.83-.43.33L376,125.2l-1-.28-2.21.76,1.27,1.64-.93.48h-1l-1-1.5-.34.64.41,1.74.91,1.37-.69.64,1,1.35.91.85,0,1.65-1.69-.77.54,1.49-1.16.31.69,2.58-1.21,0-1.5-1.27-.69-2.34-.32-1.94-.71-1.34-.94-1.67-.12-.83.85-1.42.11-.95.59-.42,0-.77,1.2-.26.7-.64,1,.06.3-.51.35-.1,1.35.08,1.46-.8,1.29,1,1.66-.28,0-1.45Z"/><path class="cls-1" d="M243.92,3.22l6.14-1.74,6.42.13L258.81.53l6.46-.28,14.61.37,11.44,2.32-3.38,1.12-7,.13-9.84.29L272,5l6.47-.32,5.51,1,3.55-.89,1.52,1-2,1.7,4.66-1.09,8.88-1.13,5.48.57,1,1.25L299.67,9.2l-1,.67-5.85.5,4.24.14-2.14,2.13-1.47,1.89.06,3.25,2.2,1.91-2.86.12-3,.92,3.37,1.55.43,2.48-2,.27L294,27.55l-4.06.21,2.12,1.19-.6,1-2.58.45h-2.55l2.29,2,0,1.3L285,32.51l-.94.78,2.47.73L289,35.8l.69,2.35-3.26.56L285,37.59l-2.26-1.68.63,2-2.12,1.54,4.82.12,2.52.16-4.9,2.54-5,2.3-5.35,1h-2l-1.89,1.13-2.54,3.08-3.93,2L261.7,52l-2.43.72-2.63.68-1.57,1.81,0,2-.93,1.92-3,2.34.74,2.28-.82,2.41L250.12,69l-2.58.18-2.7-2.38-3.66,0-1.77-1.6-1.22-2.85L235,58.7l-.93-1.9-.25-2.62-2.53-2.69.66-2.15-1.22-1,1.81-3.41,2.75-1.09.72-1.22.38-2.28-2.09,1-1,.43-1.64.42-2.24-1-.12-2L230,37.7l1.7,0,3.73.78-3.14-1.85-1.64-1-1.82.41-1.53-.72,2-2.72-1.11-1.09-1.45-2-2.2-3.1-2.33-1.13,0-1.22-4.91-1.71-3.88-.21-4.89.12-4.46.21L202,21.47l-3.18-1.84,4.8-.92,3.68-.15-7.83-.76L195.4,16.6l.25-1.13,6.92-1.41,6.7-1.4L210,11.6l-4.94-1,1.59-1.16,6.33-2L215.63,7l-.76-1.31L219.2,5l5.62-.46,5.62,0,2,.91,4.85-1.61,4.37,1.09,2.57.23L248,6l-4.35-1.57Z"/><path class="cls-1" d="M164.68,204.39l-.94-.51-1.14-.05-.84-.58-1-1.2,0-.85.21-.68-.26-.55.88-2.38H164l0-1-.3-.18-.2-.63-.68-.67-.68-1H163v-1.64h1.71l1.69,0v2.31l-.14,3.3h.55l.6.53.16-.44.54.37-.83,1.11-.87.82-.13.56.15.57-.38.74-.43.18.1.34-.34.32-.63.74Z"/><path class="cls-1" d="M220.16,220.06l1.2,1.07,1.13,1.9.05,1.5.69.07,1,1.42.72,1-.29,2.63-1.11.76.1.69-.34,1.51.81,2.12h.59l.24,1.65,1.12,2.54-.45.1-1-.25-.59.78-.83.51-.58.13-.2.57-.9-.14-1.13-1.37-.13-1.35-.47-1.48.29-2.49.51-1-.42-1.36-.63-.44.24-1.28-.43-.67-1,.13-1.24-2.22.5-.8,0-1.35,1.13-.47.45-.55-.63-1.08.16-1.06Z"/><path class="cls-1" d="M169.76,206.58l-.32-.91-.56-.25.13-1.17-.25-.32-.38-.21-.8.35-.07-.39-.55-.47-.39-.58-.54-.25.38-.74-.15-.57.13-.56.87-.82.83-1.11.19.11.4-.51.52,0,.17.24.28-.15.85.26.85-.08.59-.32.21-.33.58.15.44.2.48-.07.36-.25.84.4.29.06.56.55.53.65.66.45.48.8-.63-.06-.25.4-.63.38h-.46l-.4.37-.37-.13-.31-.45-.19.08-.23.7-.18,0,0,.6-.64.8-.34.35-.19.36-.54-.59-.39.78-.38,0-.43.07,0,1.44-.27,0-.23.67Z"/><path class="cls-1" d="M363.89,110.44l.44,1.13.58.83-.7,1.1-.83-.65-1.26,0-1.57-.48-.85.06-.4.61-.66-.67-.38,1.21.9,1.37.4.9.84,1.09.7.65.69,1.22,1.62,1.11-.2.5-1.72-1.08-1.06-1.05-1.67-.87-1.54-2.15.37-.22-.83-1.23,0-1-1.18-.46-.56,1.26-.54-1,0-1,.07,0,1.27.1.33-.49.62.48.72.06V111l.64-.3.18-1.18,1.46-.78.58.36,1.37,1.25,1.51.56Z"/><path class="cls-1" d="M195.59,186.34l1.12.13,1.59.46.16,1.59-.14,1.12-.45.49.47.88,0,.79-1.21-.5-.86.2-1.12-.21-.86.55-1-.91.16-.94,1.68.41,1.38.23.66-.65-.84-1.26V187.6l-1.15-.46Z"/><path class="cls-7" d="M359.08,107.68l.61-1.88-.35-.63h1l.14-1.19.93.75.67.32,1.54-.36.15-.59.73-.09.89-.45.2.19.86-.36.43-.69.6-.18,2,.89.39-.3,1,.79.13.78-1.12.61-.87,2-1.11,2-1.47.55-1.14-.13-1.4.77-.68.44-1.51-.56-1.37-1.25-.58-.36-.36-1Z"/><path class="cls-1" d="M550.23,274.39l-.77.06-2.43-2,1.71-.57,1,.89.64.89Zm6.8-.29-1.57.64-.22-.35.16-1,.79-1.78,1.81-1.16.19.58,0,.89Zm-12-6,.66.78,1.13-.24.45,1.24-2.11.59-1.27.39-1,0,.63-1.68,1,0Zm9.15,0-.27,1.62-2.75.83-2.43-.36v-1.07l1.45-.61,1.15.88,1.22-.22Zm-26.12-3.84,3.5.29.4-1.2,3.39,1.4.67,1.89,2.74.53,2.24,1.74L539,270l-2-1.18-1.66.08-1.9-.22-1.71-.52-2.12-1.12-1.34-.29-.76.37-3.34-1.2-.32-1.26-1.67-.21,1.25-2.79,2.22.17L527.1,263l.76.22Zm47.74-1.64-.94,2-.18-2.2.32-1,.38-1,.42.85Zm-13.67-8-.68,1-1.26-.54-.36-1.26,1.85-.14Zm5.89-1.07.66,2.23-1.54-1.2-1.53-.24-1,.19-1.27-.1.43-1.61,2.26-.12Zm6.72-5.67.51,4.72,1.89,1.75,1.53-3.1,2.1-1.76h1.63l1.56,1,1.36,1,2,.56,0,9.52,0,9.52-1.63-2.4-1.86-.59-.45.83-2.32.09.78-2.38,1.15-.81-.48-3.18-.88-2.45-3.55-2.47-1.51-.24-2.75-2.7-.54,1.42-.7.26-.42-1.07v-1.27l-1.4-1.43,2-1.05,1.3.06L574,251h-2.68l-.72-1.74-1.63-.54-.77-1.44,2.47-.71.94-1,2.94,1.2Zm-16.28-7.51-1.47,2.9-1.37.56-1.76-.57-3,.15-1.6.42L549,246l1.64,2.6,1-1.32,3.41-1-.15,1.34-.8-.42-.79,1.71-1.61,1.13,1.73,3.74-.33,1,1.64,3.37,0,1.92-1,.86-.72-1,.88-2.39-1.79,1.13-.45-.81.24-1.13L550.56,255l.14-2.85-1.22.89.15,3.4.07,4.18-1.16.42-.79-.86.52-2.69L548,254.7l-.77,0-.57-2,.76-1.91.26-2.32.92-4.4.38-1.2,1.55-2.17,1.43.86,2.31.41,2.1-.12,1.81-2.12Zm6.31.84-.1,2.55-.94-.29-.28,1.78.75,1.54-.51.35-.74-1.85-.54-3.73.37-2.33.61-1.06.13,1.59,1.08.26Zm-19.78-2,2.05,2.7-2.17.34-.61,2,.08,2.65-1.76,2,0,2.91-.71,4.47-.27-1-2.08,1.31-.72-1.78-1.3-.17-.91-.94-2.17,1.05-.67-1.41-1.2.16-1.51-.34-.28-3.92-.91-.81-.88-2.5-.25-2.55.21-2.71,1.09-1.94.31,2,1.25,1.65,1.18-.59,1.17.21,1.07-1.48.88-.26,1.73.82,1.49-.62.94-4.06.7-1,.63-3.32h2.1l1.59.49L544,235l1.34,2.76ZM523,261.58l-2,.06-1.54-2.44-2.35-2.39-.78-1.77-1.38-2.38-.91-2.19-1.39-4.09L511,244l-.54-2.51-.67-2.28-1.65-1.84-1-2.5-1.38-1.64L503.89,230l-.16-1.49,1.18.12,2.83.56,1.62,2.86,1.41,2,1,1.21,1.73,3.14,1.86,0,1.54,2,1.06,2.45,1.39,1.33-.73,2.38,1,1,.66.07.31,2,.64,1.63,1.34.26.89,1.85-.46,3.63Z"/><path class="cls-1" d="M471.81,140.85l2,3.42-.19,2.38.73,1.49-.06,1.49-1.31-.39.51,3.22,1.8,1.85,2.54,2-1.16,1.32-.71,2.73,1.77,1.1,1.72,1.43,2.39,1.64,2.51.38,1.05,1.49,1.41.28,2.2.68,1.52,0,.21-1.16-.24-1.86.14-1.26,1.12-.61.15,2.3,0,.59,1.66,1.11,1.15-.46,1.54.2,1.49-.09.13-1.79-.74-.93,1.47-.37,1.66-2.17L502.4,159l1.53.72,1.3-1.23.86,1.82-.62,1.23,2,.44.14,1.11-.64.54.15,1.8-1.31-.53-2.37,2,.06,1.67-1,2.45-.09,1.42-.82,2.41-1.43-.67-.07,3-.41,1,.19,1.24-.9.69-1-4.63h-.5l-.3,1.87-1-1.51.56-1.66.82-.17.84-2.47-1.05-.5-1.7,0-1.74-.4-.16-2-.87-.14-1.45-1.26-.65,2,1.32,1.55L491,171.88l-.41,1.06,1.13.78-.31,1.76.63,2.2.28,2.4-.26,1.07-1.24,0-2.25.61.11,2.2-1,1.73-2.63,2-2,3.44-1.37,1.84-1.82,1.91v1.34l-.91.72-1.65,1-.85.15-.55,2.23.38,3.8.1,2.42-.77,2.77v5l-.95.14-.83,2.23.56,1-1.67.83-.62,2-.73.84-1.73-2.73-.85-4.09-.7-2.95-.64-1.38-1-2.81-.45-3.65-.32-1.82-1.66-4-.76-5.66-.55-3.74v-3.54l-.35-2.73-2.66,1.75-1.29-.35L455.94,180l.88-1.06-.54-1.15-2.15-2.48,1.22-1.95h4l-.36-2.51-1-1.48-.21-2.25-1.2-1.31,2-3.06,2.12.22,1.91-3.06,1.15-3,1.78-2.93,0-2.08,1.56-1.69-1.48-1.44-.64-2-.65-2.56.9-1.26,2.77.71,2-.43Z"/><path class="cls-4" d="M318.11,87.2l.3,2.09L317,91.89l-3.24,1.73-2.59-.44,1.48-3-1-3,2.49-2.29,1.38-1.36.38,1.56-.38,1.56,1.13,0Z"/><path class="cls-1" d="M428.07,135.87l1.61-.57,1.3-1.67,1.22.08.8-.54,1.3.27,2,1.48,1.46.32,2.09,2.59,1.36.1.16,2.46-.75,3.64-.5,2.12.8.43-.78,1.6.6,2.33.14,1.85,1.39.49.15,1.88-1.66,2.65.91,1.54.74,1.76,1.75,1.28.05,2.57.88.47.15,1.34-2.64,1.51-.69,3.39-3.44-.88-2-.67-2.06-.38-.78-3.58-.88-.52-1.41.52-1.84,1.41-2.23-1L425.44,164l-1.76-.83-1.22-2.77-1.35-3.89-1,.47L419,156l-.68,1.14-1-1.53,0-1.56h-.58l.3-2.12-.94-2.22-2.24-1.6-1.27-2.78.42-2.28.92-1-.14-1.71-1.2-.88L411.33,136l-1-2.34.36-.9-.57-3.35,1.25-.83.29,1.1.92,1.35,1.25.39.66-.09,2.16-2.15.69-.22.54.86-.63,1.44,1.14,1.53.46-.15.58,2.15,1.73.61,1.27,1.47,2.6.5,2.86-.77Z"/><path class="cls-7" d="M412.52,139.44l1.2.88.14,1.71-.92,1-.42,2.28,1.27,2.78,2.24,1.6.94,2.22-.3,2.12h.58l0,1.56,1,1.53-1.09-.14-1.23-.24-1.34,2.8-3.4-.23-5.16-5.87-2.73-2-2.2-.79L400.4,147l4-3,.69-3.53-.17-2.13,1-.72.94-1.82.79-.45,2.13.38.64.74.88-.49Z"/><path class="cls-1" d="M302.92,50.44l-.42,1.89,2.07,2-2.38,2.23-5.28,2-1.58.53-2.41-.43-5.1-.92,1.8-1.29-4-1.43,3.24-.57-.08-.86L285,52.91,286.2,51l2.77-.43,2.85,2L294.6,51l2.3.83,3-1.56Z"/><path class="cls-1" d="M394.78,149l-.32.92-.66-.4-.38,1.94.46.33-.47.4-.08.77.86-.4,0,1.14-.91,4.67-1.2-5,.53-1-.12-.17.48-1.36.37-2.2.26-.74.05,0h.61l.17-.51.49,0,0,1.2-.25.44Z"/><path class="cls-4" d="M357.84,132.86l-.66,2.3.27.9-.38,1.5-1.4-1.1-.93-.32-2.55-1.48.26-1.5,2.14.27,1.87-.32Zm-11.54-8.7,1.1,2.07-.26,3.86-.83-.18-.75,1-.69-.77-.07-3.52-.42-1.67,1,.15Zm5.79-16.23,2.62.75-.2,1.44.44,1.24-1.46-.43L352,112l.1,1.45-.22.83.6,1.49,1.71,1.47.92,2.41,2,2.35,1.43,0,.45.65-.51.58,1.64,1.06,1.34.88,1.57,1.52.19.55-.34,1-1-1.36-1.59-.48-.77,1.89,1.32,1.08-.22,1.52-.76.17-1,2.5-.76.22v-.89l.37-1.57.4-.62L358.2,129l-.56-1.47-.76-.36-.54-1.26-1.18-.53-.79-1.17L353,124l-1.43-1.32-1.67-1.9-1.24-1.68-.57-2.89-.91-.34-1.49-1-.84.39-1.06,1.36-.76.21.21-1.27-1-.37-.47-2.26.63-.89-.54-1.1.08-.83.79.63.88-.14,1-1,.32.46.87-.09.4-1.18,1.35.37.81-.49.15-1.2,1.11.42.21-.56,1.81-.51Z"/><path class="cls-1" d="M187.58,190.5l1.23.26,1,.7.3.8-1.29.05-.56.49-1-.47-1-1.06.22-.67.77-.2Z"/><path class="cls-1" d="M394.46,149.9l.32-.92,2,1.16L400.4,147l.74,3.56-.35.44-3.66,1.47,1.82,2.92-.6.5-.3,1-1.4.4-.44,1.05-.79.9-2-.46-.06-.42.91-4.67,0-1.14.27-.86Z"/><path class="cls-11" d="M575.69,144.78l.23,1-1,1.77-.75-.94-.94.68-.49,1.71-1.19-.83v-1.38l1-1.74,1,.34.75-1.23ZM587.28,136l-.69,2.33.32,1.46-1,2.06-2.34,1.37-3.22.18-2.61,3.33-1.23-1.12-.08-2.18-3.18.64-2.16,1.38-2.14.06,1.85,2.15-1.22,5-1.18,1.23-.89-1.13.45-2.63-1.16-.85-.74-2,1.73-.9,1-1.84,1.84-1.51,1.34-2,3.64-.87,2,.6,1.91-5.19,1.22,1.39,2.68-2.92,1-1.13,1.15-3.57-.31-3.28.77-1.84,1.94-.54,1,4-.05,2.37L587.25,133Zm5.37-20.53,1.29.62,1.29-1.24.41,3.28-2.71.8-1.6,2.9-2.88-2-1,3.2-2,0-.25-2.9.9-2.25,2-.16.53-4,.54-2.28,2.15,3Z"/><path class="cls-1" d="M459.23,121.08l-1,.54-2.41,2-.8,2.09-.68,0-.5-1.38-2.33-.09-.37-2.39-.89,0,.14-2.93-2.19-2.13L445,117l-2.14.43-1.75-2.63-1.5-1.1-2.83-2.09-.34-.25-4.71,1.73.07,10.77-.94.14-1.28-2.29-1.24-.82-2.08.61-.81,1-.1-.71.45-1.22-.35-1-2.12-1-.83-2.62-1-.74-.06-1,1.78.28.07-2.13,1.56-.47,1.6.44.33-2.85-.33-1.81-1.83.14-1.55-.71L421,108.4l-1.71.61-.93-.47.19-1.5-1.17-2-1.36.08-1.55-2,1.06-2.21-.53-.6,1.46-3.21,1.88,1.69.23-2.13,3.78-3.18,2.86-.08,4,2,2.17,1.18,1.94-1.23,2.9-.06,2.34,1.51.53-.87,2.57.13.46-1.38-3-2,1.76-1.42-.34-.8,1.76-.76-1.32-2,.84-1,6.84-1,.89-.72L454.12,84l1.64-1.21,3.29.63.58,3,1.91-.71,2.35,1-.15,1.59,1.75-.17,4.58-2.76-.67.92,2.33,2.26L475.83,96l1-1.53,2.52,1.68,2.63-.75,1,.53.88,1.69,1.28.57.78,1.24,2.36-.39,1,1.79-1.39,1.94-1.52.27-.09,2.93-1,1.32-3.63-1-1.32,5.23-.94.65-3.62,1.17,1.65,5.07-1.25.76.15,1.66-1.13-.43-.92-1-2.71-.31-3-.08-.66.32-2.6-1.23-1,.6-.28,1.72-3-1-1.2.41Z"/><path class="cls-1" d="M404.42,247l1.08,2.41-1.28,1.17-.45,1.22-.69.21-.26,2.06-.59,1.18-.36,1.94-.74,1-2.63-2.92-.12-1.69-6.63-5.95-.31-.32,0-3.09L392,243l.9-1.93.67-2.13-.8-3.35-.21-1.47-.87-2,1.13-1.74,1.24-1.92,1,.49v1.64l.62,1h1.27l2.32,2.48.58,0,.43-.08.4.34,1.22.23.54-1.22,1.67-1.22.74,1H406l-1.6,3.31Z"/><path class="cls-1" d="M459.23,121.08l.41-1.28,1.2-.41,3,1,.28-1.72,1-.6,2.6,1.23.66-.32,3,.08,2.71.31.92,1,1.13.43-.26.66-2.88,1.58-.65,1.16-2.35.35-.69,1.86-1.94-.39-1.26.57L464.46,128l.25.68-.52.67-3.46.44-2.26-.95-2,.23.17-1.68,2,.49.67-.9,1.39.29,2.34-2.1-2.17-1.54-1.3.73-1.35-1.1,1.53-1.89Z"/><path class="cls-1" d="M518.74,213.45l-.74-1.52-.92-3-.43-3.53L517.8,203l2.36-.56,1.71.42,1.51,1.14.83-2,1.62,1.07.42,1.95-.23,3.5L523,210.72l.8,1.77-1.92.21-1.58,1.18Z"/><path class="cls-12" d="M564.19,131.75l1.58,3.45.45,1.89v3.36l-.69,1.6-1.66.56-1.46,1.21-1.65.25-.2-1.59.34-2.19-.81-3,1.36-.49-1.25-2.5.11-.26.82.1.71-1.32,1.29-.14.78-.19Z"/><path class="cls-1" d="M367.42,121.7l-.08.6-.23,0-.12-1.06-.44-.3-.39-.78.34-.65.44-.21.25-1,.33-.16.26.41.34.18.24.46.3.14.36.54.26,0-.21.71-.22.35.06.22-.41.11Z"/><path class="cls-1" d="M417.19,157l.38,1.29-.16.67.59,2.2-1.29.08-.46-1.39-1.63-.28,1.34-2.8Z"/><path class="cls-1" d="M521.88,202.82l.6-1.32.08-2.47-1.48-2.54L521,193.6l-1.39-2.37-1.38-.2-.37,1-1.07.08-.55-.51-1.93,1.74,0-2.62.45-3.08-1.24-.13-.11-1.75-.79-.9.39-1.08,1.56-1.9.16.69,1,.08-.28-3.34.95-.43,1.07,2.31.82,2.65,2.25,0,.71,2.55-1.17.76-.52,1,2.19,1.75,1.52,3.45,1.15,2.57,1.38,2,.46,2.06-.33,2.92-1.62-1.07-.83,2Z"/><path class="cls-1" d="M395,147.32l-.49,0-.17.51h-.61l.65-2.38.91-2.06,0-.1.82.15.3,1.15-1,1.1Z"/><path class="cls-1" d="M315.35,231.75l-.48,0L313,230.38l-1.66-2.22-1.56-1.6-1.23-1.88.44-.93.1-.85.83-1.58.85-1.36.39-.07.48-.33.76,1.79-.12,1.17.36.62h.52l.37-1.18.52.07-.08.85.18,1.41-.4,1.3.53.8.58.2.77,1.22.06,1.15-.17.37Z"/><path class="cls-1" d="M356.61,177.73l-1.29,1.09-1-1.6L351.4,176l-.8-1.83-1.44-1.36-.86.54-.65-1.63-.07-1.25-1.08-2.13.73-1.22-.16-1.84.23-1.6-.13-1.33.32-2.38-.1-1.36-.59-2.58.89-.68.16-1.23-.19-1.21,1.26-1.13.56-.94.89-.84.1-2.24,2.15,1,.77-.25,1.53.49,2.43,1.3.86,2.6,1.64.57,2.58,1.22,1.95,1.45.89-.76.88-1.34-.43-2.24.57-1.42,1.32-1.37,1.26-.4,2.47.6.62,1.31h.68l.58.5,1.82.34.45,1-.66,1.4.28,1.25-.47,1.8.55,2.35v27h-2.1l0,1.23-7.29-5.59-7.29-5.59Z"/><path class="cls-1" d="M479,222.53l-.28,3-.77.83-1.59.67-.87-2.32-.32-4.2.83-4.74,1.26,1.62.85,2.06Z"/><path class="cls-1" d="M382.45,329l.63.88-.56,1.42-.31,1-1,.46-.34.93-.65.29-1.37-2.25,1-1.85,1-1.14.85-.6Z"/><path class="cls-1" d="M371,85.86l-.15-.75.2-.8-.81-.46-1.92-.51L368,80.88l2.09-.9,3.07.19,1.8-.29.26.61,1,.19,1.76,1.42.17,1.31-1.5.94L376.15,86l-2,1.1-1.77,0-.44-.9Z"/><path class="cls-1" d="M340.5,98.12l.37.66-.1,1.28-.53.06-.41-.25.2-1.64Z"/><path class="cls-1" d="M368,80.88l.06-2.2.9-1.83,1.72-1L372.1,78l1.47-.06.35-2.24,1.56-.52.8.36,1.57,1.08h1.51l.88.67.16,1.42.59,1.72-2,1.13-1.11.49-1.76-1.42-1-.19-.26-.61-1.8.29L370.05,80Z"/><path class="cls-1" d="M320,140.09l1.1,1.24,1.74-.2,1.89.64.79,0,.69,1.87.11,1.78.63,3.08.48.62-.34,1.13-2.39.49-.83,1.08-1.06.25-.08,2.16-2.14,1.16-.7,1.46-1.5.78-1.83.45-3,2.15,0,3.46h-.28l0,1.56-1.13.09-.59.66h-.83l-.66-.38-1.54.31-.6,2.28-.57.21-.86,3.68L304,175.32l-.6,4-.75,1.31-.22,1.05-4.12.23h0l.09-1.35.7-.8.6-1.52-.12-1,.63-2.06,1-1.86.62-.47.48-1.7,0-1.56.66-1.81,1.22-1.06,1.16-3,0,0,.92-1.12,1.7-.32,1.44-2,.92-.78,1.53-2.44-.46-3.63.69-2.51.25-1.54,1.18-2,1.83-1.33,1.36-1.21,1.22-3,.57-1.79Z"/><path class="cls-1" d="M378.13,103.69l.44-.43,1.22-.29,1.35.91.75.11.83.79-.13,1,.67.48.26,1.22.64.74-.13.44.34.3-.48.22-1.08-.09-.18-.4-.38.23.13.52-.5.93-.32,1-.46.32-.33-1.33.19-1.25-.06-1.28-1.06-1.74-.58-1.23-.57-.87Z"/><path class="cls-1" d="M420.06,280.91l.49,1.24.45,1.93.29,3.51.47,1.37-.18,1.4-.32.86-.62-1.71-.34.86.35,2.16-.16,1.24-.5.67-.12,2.47-.72,3.4-.9,4-1.13,5.53-.7,4.06-.83,3.39-1.49.69-1.6,1.24-1.05-.75-1.45-1-.5-1.54-.12-2.59-.64-2.33-.17-2.1.33-2.11.84-.51v-1l.87-2.21.16-1.86-.42-1.38L410,298l-.15-2.69.64-1.63.25-1.85.91-.11,1-.6.68-.53.8,0,1-1.66,1.51-1.8.55-1.47-.25-1.25.78.35,1-2,0-1.76.61-1.31Z"/><path class="cls-7" d="M151.79,169l-.71,2.56-.32,2.1-.13,3.91-.18,1.43.32,1.59.57,1.42.37,2.26,1.21,2.17.43,1.67.72,1.44,1.94.77.76,1.22,1.6-.82,1.39-.29,1.37-.52,1.15-.5,1.16-1.19.44-1.7L164,184l.32-.85,1.24-.76,1.93-.68,1.62.1,1.11-.25.44.62-.06,1.41-1,1.74-.43,1.78.34.51-.27,1.26-.46,2.28-.46-.75-.38,0-.35,0-.66,1.76-.33-.35-.22.13v.43l-1.69,0H163v1.64h-.83l.68,1,.68.67.2.63.3.18,0,1h-2.35l-.88,2.38.26.55-.21.68,0,.85-2.07-3.14-.94-.95-1.49-.76-1,.21-1.47,1.1-.92.29-1.29-.77-1.37-.56-1.71-1.34-1.37-.41L145,194.35l-1.53-1.4-.46-.78-1-.17-1.87-.92-.76-1.33-2-1.66-.92-1.84-.44-1.42.61-.29-.19-.83.42-.76v-1l-.62-1.31-.17-1.16-.61-1.47-1.61-2.9-1.84-2.28-.89-1.82-1.57-1.19-.34-.71.28-1.8-.93-.68-1.08-1.42-.46-2-1-.24-1.06-1.54-.86-1.42-.08-.91-1-2.2-.65-2.24,0-1.12-1.32-1.16-.61.13-1-.8-.29,1.19.3,1.4.18,2.19.63,1.2,1.36,2,.3.69.28.21.24,1,.33,0,.37,1.88.56.74.39,1,1.15,1.49.61,2.72.54,1.28L127,172l.1,1.54.88.1.73,1.33.66,1.3,0,.52-.77,1.07h-.32l-.48-1.78-1.2-1.66L125.22,173l-.94-.74.06-2.14-.28-1.58-.87-.91-1.26-1.3-.24.38-.46-.76-1.13-.71-1.08-1.7.13-.22.75.17.68-1.09.07-1.32L119.25,159l-1.07-.81-.67-1.82-.68-1.91-.85-2.33-.74-2.63,2.08-.22,2.32-.32-.17.57,2.76,1.42L126.4,153l3.64,0h1.45v-1.2h3.17l.67,1,.94.92,1.09,1.28.61,1.53.45,1.61.95.88,1.52.88,1.15-2.31,1.5-.06,1.29,1.16.92,2,.63,1.71,1.08,1.66.4,2,.51,1.37,1.43.91,1.3.64Z"/><path class="cls-1" d="M367.11,122.28l.23,0,.08-.6,1.08-.45.41-.11.62-.17.85,0,.92.94.13,1.93-.35.1-.3.51-1-.06-.7.64-1.2.26-.76-.71-.26-1.25Z"/><path class="cls-1" d="M307.19,201.81l.62-.53.31-1.72.58-.07,1.28.81,1-.58.71.19.27-.65,7.34,0,.41-2-.32-.36-.88-12.6-.88-12.6,2.8-.05,6.17,6.37,6.17,6.37.43,1.37,1.14.84.85.47,0,1.86,2-.29v6.72l-1,2-.16,1.8-1.62.46-2.5.25-.68,1-1.17.11H329l-.46-.56-1,.42L325.79,202l-.35.91L324,204.2l-.25.75-.77.59-.88-.39-.5.71-.27,2-1.45,2.42,0,1-.5,1.24.12,1.7-.75.43-.43.37-.28-1.25-.53.33-.32-.06-.34.85-1.41,0-.51-.44-.24.27-.56-.84.1-.87-.23-.34-.39.29.07-1,.37-.75-.75-1.22-.22-.81-.41-.64-.37-.08-.44.41-.59.39-.5.63-.78-.23-.51-.74-.3-.1-.48.39h-.29l-.11-1.07.08-.91-.16-1.13-.68-.82-.36-1.67Z"/><path class="cls-1" d="M511.5,185.55l-1.07,1.27-1.29.13-.83,3.16-.77.53.88,2.56,1.16,2.13.75,1.93-.67,2.54-.63.54.44,1.46,1.22,2.32.21,1.63,0,1.36.71,2.66-1,2.72-.89,3-.18-2.17.56-2.24-.61-1.73.15-3.18-.74-1.51-.6-3.49-.33-3.69-.79-2.42-1.2,1.46-2.08,2.08-1-.26-1.13-.68.63-3.62-.38-2.73-1.43-3.37.22-1.05-1.07-.37-1.3-2.38-.12-2.35.64.44,0-2.09.9-.69-.19-1.24.41-1,.07-3,1.43.67.82-2.41.09-1.42,1-2.45-.06-1.67,2.37-2,1.31.53-.15-1.8.64-.54-.14-1.11,1.07-.22.61,1.72.8.7.05,2.23-.07,2.41-1.73,2.44-.22,3.46,1.93-.48.44,2.69,1.16.57-.53,2.43,1.36,1.1.79.54,1.34-.85.05,1.21-1.56,1.9-.39,1.08Z"/><path class="cls-1" d="M365.66,120.39l-.12-.55-.79,1.44.12.93-.38-.23-.51-1-.79-.58.2-.5.27-1.61.59-.68.34-.27.49.5.27.4.6.31.7.61-.15.25-.34.65Z"/><path class="cls-1" d="M489.94,100.55l1.93-.51,3.49-2.51,2.78-1.37,1.59.9,1.91,0,1.22,1.36,1.83.11,2.64.73,1.78-2-.74-1.72,1.89-3,2,1.21,1.66.34,2.15.75.35,2.19,2.6,1.23,1.73-.54,2.31-.38,1.83.38,1.79,1.4,1.11,1.49,1.7,0,2.3.48,1.68-.72,2.41-.48,2.68-2.06,1.1.32,1,1,2.18-.24L542,101l-1.29,2.92.47,1.19,1-.37,1.8.45,1.41-1.08,1.47.93,1.66,2-.2,1-1.44-.33-2.66.39-1.29.83L541.57,111l-2.79,1.13L537,113.65l-1.88-.59-1-.26-1,1.88.58,1.12.3,1-1.28,1-1.31,1.56-2.14,1-2.74.11-3,1L521.42,123l-.81-.91H518.4l-2.71-1.77-1.81-.43-2.43.41-3.77-.65-2,.07L504.59,118l-.83-2.69-1.13-.32-2.21-1.82-2.46-.41-2.17-.5-.66-1.27.7-3.41-1.26-2.35-2.61-1.1-1.54-1.55Z"/><path class="cls-1" d="M392.66,278.13l1.38-.24,2.2.82.48-.37,1.27-.08.65-.88,1.1,0,2-1.13,1.45-1.69.3,1.31-.08,2.91.23,2.56.07,4.56.32,1.43-.55,2.09-.71,2-1.16,1.81-1.67,1.11-2.06,1.42L395.8,299l-.7.53-1.28,2.07-.75.68-.15,2.08.87,2.21.36,1.71,0,.87.32-.15-.05,2.86-.3,1.36.43.5-.27,1.21-.76,1L392,317l-2.2,1.58-.8,1.08.16,1.23.47.2-.16,1.54-1.39,0-.16-1.29-.27-1.31-.16-1,.33-3.26-.48-2.07-.88-4.11,1.93-3.31.48-2.11.28-.27.21-1.72-.29-.86.08-2.18.36-2v-3.7l-.95-.94-.87-.21-.39-.72-.85-.62-1.53.06-.12-1.09-.17-2.08,5.55-2.41,1.05,1.4.5-.27.72.74.11,1.17-.38,1.36.14,2.06,1.19,1.8.56-2,.79-.61-.16-3.75L394,285l-.66-.94-.63,0-.51-3.8Z"/><path class="cls-1" d="M307.19,201.81l-1.21-2-1.11-2.15-1.21-.77-.87-.86-1,0-.89.64-.91-.25-.63.94-.16-1.57.51-1.44.23-2.75-.2-2.89-.22-1.45.18-1.46-.47-1.39-1-1.26.4-1,7.16,0-.35-4.22.45-1.5,1.71-.26-.06-7.47,6,.15V164.5l6.88,7.07-2.8.05.88,12.6.88,12.6.32.36-.41,2-7.34,0-.27.65-.71-.19-1,.58-1.28-.81-.58.07-.31,1.72Z"/><path class="cls-1" d="M392.66,278.13l-.51,2.22.51,3.8.63,0,.66.94.77,2.11.16,3.75-.79.61-.56,2-1.19-1.8-.14-2.06.38-1.36-.11-1.17-.72-.74-.5.27-1.05-1.4-1-.76.56-2.71.58-1-.35-2.42.37-2.37.31-.79-.47-2.48-.86-1.3,1.79.54.37.81.62,1.36Z"/><path class="cls-1" d="M514.31,226.38l.14,1.5,1.21-.35.6-1.2.42.27,1.08,1.76.77,2,.1,2-.19,1.33.18,1,.13,1.73.64.8.72,2.58,0,1-1.3.19L517,238.75l-2.16-2.32-.21-1.49-1.06-2-.25-2.42L512.7,229l.2-2.13-.4-1.24.32-.52Zm32.08,5-1.35,1-1.59-.49h-2.1l-.63,3.32-.7,1-.94,4.06-1.49.62-1.73-.82-.88.26-1.07,1.48-1.17-.21-1.18.59-1.25-1.65-.31-2,1.34,1,1.41-.55.37-2.47.78-.55,2.19-.63,1.31-2.31.9-1.85.83,1.51.38-1,.87.09.11-1.86.08-1.44,1.41-2,.92-2.28h.74l.94,1.48.08,1.27,1.2.81,1.53.88-.13,1.14-1.23.14Z"/><path class="cls-1" d="M359.34,327.94,358,325.73l-.72-2.13-.4-2.84-.45-2.12-.61-4.5,0-3.49-.23-1.59-.71-1.2-.94-2.41-1-3.5-.4-1.83L351,297.26l-.11-2.24.88-.56,1.09-.5,1.19.09,1.09,1.32.28-.21,7.41-.13,1.27,1.4,4.43.41,3.36-1.19,1.5-.66,1.19.17.72.66v.24l-1,.66h-.55l-1.17,1.14-.7-1.2-2.82,1-1.36.1-.05,10.4-1.8.1V327.6l-1.63,1.49-1,.21-1.15-.55-.82-.21-.31-1.25-.72-.8Z"/><path class="cls-1" d="M632.64,306l1.5,1.81,1,1.34-.69.7-1-.79-1.31-1.31-1.18-1.55-1.21-2.06-.25-1,.79,0,1,1,.8,1Z"/><path class="cls-1" d="M333.39,209.63l0-2-2.11-.66-.06-1.41-1-1.91-.25-1.33.14-1.42,1.17-.11.68-1,2.5-.25,1.62-.46.16-1.8,1-2v-6.72l2.58-1.3,5.3-5.74L351.4,176l2.89,1.26,1,1.6,1.29-1.09.45,4.54.68.76,0,.93.76,1-.4,1.26-.7,5.93-.1,3.8L355,198.7l-.79,3.85.76,1.08v1.88l1.17.07-.18,1.38-.52.17-.06.93-.34.06-1.24-3.2-.43-.12-1.43,1.63-1.42-.85-1-.17-.53.41-1.07-.09L346.87,207l-.93.07-2.21-1.51-.87.72-.93,0-.69-1.1L339.4,204l-2,.35L337,205l-.26,1.68-.52,1.18-.13,2.61-1.39-1.68H334Z"/><path class="cls-1" d="M345,230.56l-1.9,1.05-.69-.15-.7.65-1.46-.06-1-1.83-.6-2.11-1.29-1.92-1.37,0h-1.61l.1-4.71,0-1.86.34-1.84.56-.9.89-1.81-.19-.79.36-1.18-.41-1.73.07-1,.13-2.61.52-1.18L337,205l.48-.63,2-.35,1.83,1.09.69,1.1.93,0,.87-.72,2.21,1.51.93-.07,1.08-1.24,1.07.09.53-.41,1,.17,1.42.85,1.43-1.63.43.12,1.24,3.2.34-.06.72,1.16-.2.53-.1,1L354.27,213l-.48,1.86-.26,1.52-.39.65-.37,2-1,1.2-.28,1.48-.41,1.18-.17,1.21-1.26,1-1-1.2-.69,0-1.09,1.71-.53,0-.87,2.82Z"/><path class="cls-1" d="M172.69,212.12l-.63-.92L171.2,210l-.4-1-.77-.92-.92-1.32.2-.45.3.44.14-.21.57-.12.23-.67.27,0,0-1.44.43-.07.38,0,.39-.78.54.59.19-.36.34-.35.64-.8,0-.6.18,0,.23-.7.19-.08.31.45.37.13.4-.37h.46l.63-.38.25-.4.63.06-.16.28-.09.65.19,1.07-.42,1-.2,1.17-.06,1.29.1.75,0,1.31-.28.29-.17,1.25.13.77-.37.75.09.79.28.48-.44.62-.54-.19-.3-.6-.58-.24-.42.38-1.2-.77Z"/><path class="cls-7" d="M340.56,88.24l1.52.08.34,1L342,92l-.46,1.1h-1.1l.31,3.06-1-.68-1.16-1.28-1.7.61-1.34-.23.94-.8,1.6-4.3Z"/><path class="cls-1" d="M381,36.63l5.72,2.14-2.36.78,2,1.83-3.11,1.17-1.48.27.77-2-2.35-1.16-2.84,1-.9,2.14L374.69,44l-2-.71-2.39.14-2-1.54-1.1.77-1.13.12-.27,1.92-3.45-.47-.48,1.63h-1.76L358.91,48l-1.83,3.24-2.84,4.11.67,1-.64,1.16-1.81,0-1.19,2.74.11,3.88,1.17,1.48-.6,3.43-1.52,2-.81,1.68-1.23-1.79-3.61,3.38-2.44.68-2.53-1.49-.65-3.14-.58-6.74,1.68-1.88,4.83-2.45,3.61-3,3.35-4.07,4.39-5.64,3.06-2.2,5-3.66,4-1.28,3,.16,2.79-2.42,3.33.13Zm-6.29-19.47-4.09,1.19-3.23-.68,1.26-.75L367.51,16l3.79-.58.73,1.1Zm-11.84-5.4,6,2.18-4.6,1.15-1,2.15-1.6.55-.87,2.42-2.2.11-3.93-1.78,1.66-1-2.74-.84L350,14.2l-1.42-2.29,5-1,1,1,2.6,0,.69-1,2.69-.1ZM376,9.7l3.58,1-2.71,1.57-5.3.34-5.39-.49-.33-.8-2.62-.05-2-1.34,5.65-.82,2.66.7L371.37,9Z"/><path class="cls-7" d="M490.61,163.09l-.14,1.26.24,1.86-.21,1.16-1.52,0-2.2-.68-1.41-.28L484.31,165l-2.51-.38L479.42,163l-1.72-1.43-1.77-1.1.71-2.73,1.16-1.32.76-.7,1.47.9,1.85,1.9,1,.42.61,1.4,1.42.58,1.48,1.28,2.07.67Z"/><path class="cls-4" d="M645.89,364l.41,1.21,1.3-1.18.53,1.23v1.23l-.68,1.35-1.2,2.15-.94,1.17.67,1.4-1.41,0-1.56,1.1-.49,1.91-1,3-1.44,1.3-.91.83-1.68-.06-1.18-1-2-.21-.31-1.07,1-2.17,2.3-2.88,1.18-.55,1.31-1.11,1.57-1.53,1.1-1.52.81-2.18.69-.74.27-1.63,1.28-1.35Zm2.91-13.91,1.33,3.07,0-2,.83.8.27,2.21,1.47,1,1.24.23,1-1.11.93.34-.44,2.59-.56,1.7-1.4-.06-.49.89.17,1.26-.27.54-.69,1.57-.91,2-1.41,1.16-.31-.77-.76-.42,1.05-2.4-.6-1.61-2-1.17.05-1.06,1.32-1,.31-2.25-.08-1.89-.74-2,0-.51-.87-1.21-1.44-2.58-.76-2.07.68-.23,1,1.62,1.42.76Z"/><path class="cls-1" d="M437.1,182.84l-.68,2-.83-.15-.38.7-.29,1.48.22,2-.17.36h-.84L433,190.26l-.18,1.42-.42.62-1.14,0-.72.74v1.18l-.89.81-1-.28-1.22,1-.84.17-.6-2L424.55,189l5.49-2.92,1.22-5.84-.84-2.07,0-1.18.53-1.21v-1.19l.83-.58-.32-.41.15-1.9h.93l.82,2,1,1.06,1.34.38,1.08.53.83,1.67.49,1,.65.37v.65l-.67,1.74-.29.82Zm-4.52-14-.24.53-.35-1,.53-1,.23.25Z"/><path class="cls-7" d="M466.91,136.07l1.35,1.36.54,2.24,3,1.18L470,143.31l-2,.43-2.77-.71-.9,1.26.65,2.56.64,2,1.48,1.44L465.53,152l0,2.08L463.78,157l-1.15,3L460.72,163l-2.12-.22-2,3.06,1.2,1.31.21,2.25,1,1.48.36,2.51h-4l-1.22,1.95-1.34-.74-.55-2.1-1.41-2.22-3.37.55-3,.05-2.58.41.69-3.39,2.64-1.51L445.1,165l-.88-.47-.05-2.57-1.75-1.28-.74-1.76-.91-1.54,3.06,1.49,1.83-.44,1.09.37.37-.64,1.27.26,2.38-1.21.06-2.48,1-1.65h1.36l.2-.82,1.4-.38.68.27.72-.82-.1-1.75.78-1.76,1.16-.74-.72-1.93,1.74.09.5-1.05-.08-1.12.91-1.23-.21-1.45-.43-1.24,1.07-1.27,2-.61,2.1-.34.93-.54Z"/><path class="cls-1" d="M187,223.4l-.61-.84L186,221l.45-.78L186,220l-.34-1-.91-.81-.8.19-.37,1-.74.73-.4.1-.18.61.87,1.58-.5.37-.26.43-.85.15-.32-1.74-.24.5-.6-.17-.37-1.17-.75-.19-.47-.34H178l-.06.63-.21-.44.1-.58.15-.59-.07-.53.27-.35-.38-.43v-1.18l.71-.26.66,1,0,.62.73.13.17-.24.5.72.9-.21.78-.74,1.11-.59.62-.87,1,.17-.07.29,1,.1.81.5.6.88.69.81-.22.43.42,1.72-.34.87-.59-.21Z"/><path class="cls-1" d="M202.18,295.83l-.49,1.5-.94.75-1.83-1.68-.16-1.2-3.63-2.93-3.28-3.19-1.41-1.8-.76-2.41.3-.84-1.55-3.83-1.8-5.39L184.9,269l-.75-1.33-.58-2.15-1.42-1.91-1.3-1.18.59-1.3-.89-2.79.57-2,1.46-1.84.22,1.22-.52.7,0,1.07.76-.23.74.32.77,1.47,1-1.2.35-2,1.12-2.54,2.2-1.15,2-3.06.57-1.9-.26-2.22.49-.28L193.3,246l.58,1.38.85.75,1.08,3.06,1.36.37,1-.77.66.51,1.1-.25,1.4,1.37-1.18,3,.55.07.92,1.55-1.65-.14-.25.44-1.5.56-2.09,2-.13,1.36-.47,1,.18,1.58-1.11.84v1.23l-.48.53.76,2.63,1,1.78-.39,1.25,1.21.17.69,1.56,1.61.08,1.5-1.72-.12,4.44.83.34,1-.5,1.58,4.7-.39,1-.09,2.05,0,2.48-.71,1.46.33,1.08-.42,1,.79,2.45Z"/><path class="cls-4" d="M560.58,219.92l.19,1.94.11,1.64-.62,2.67-.67-3-.86,1.48.58,2.15-.52,1.37-2.15-1.69-.51-2.11.56-1.39-1.16-1.38-.57,1.21-.86-.11-1.35,1.63-.3-.85.72-2.46,1.15-.82,1-1.1.65,1.32,1.39-.8.3-1.3,1.29-.08-.11-2.26,1.48,1.38.15,1.47Zm-4.38-5.44-.66,1-.57,1.84-.57.86-1.13-2,.38-.78.46-.82.2-1.81,1-.17-.29,2,1.35-2.82Zm-10,2.81-2.43,2.77.9-2,1.32-1.8,1.1-2,1-2.9.33,2.38-1.21,1.61Zm6.18-7.52,1.1.9h1.16l0,1.22-.85,1.24-1.16.88-.06-1.36.13-1.49ZM559,209l.51,3.26-1.41-.77,0,1,.45,1.8-.87.65-.08-2.05-.55-.15-.29-1.77,1.08.23,0-1.11-1.12-2.23,1.76.06Zm-7.27-2.65-.48,2.52-.78-1.46-.93-2.22,1.57.11Zm-.38-15.87,1.13.83.56-.76.17.74-.3,1.21.62,2.09L553,197,552,198l-.29,2.35.41,2.33,1,.32.81-.35,2.28,1.62-.17,1.59.6.7-.19,1.35-1.43-1.43-.68-1.53L553.8,206l-1.16-1.75-1.66.43-.91-.65.09-1.21.57-.74-.55-.68-.24,1.05-.9-1.68-.27-1.27-.07-2.8.74,1,.19-4.57.6-2.65Z"/><path class="cls-1" d="M614.54,264.41l-.51.29-.79-1.12-.8-1.85L612,259.5l.25-.28.2.87.55.66.89,1.85.86,1Zm-7.13-3.92-1,.24-.29.82-1,.71-.94.68h-1l-1.5-.85-1-.81.15-.9,1.64.43,1-.23.28-1.4.26-.07.18,1.55,1-.22.52-1,1-1-.2-1.72,1.1-.06.37.48,0,1.62Zm-8.76,5.58,1.63,1.92,1.19,3.1,1-.1-.07,1.29,1.41.5-.55.55,1.94,1.23-.2.84-1.21.2-.45-.76-1.57-.33-1.85-.44-1.42-1.86-1-1.61-.95-2.56-2.39-1.28-1.55.83-1.12,1,.23,2.15-1.44,1-1-.49-1.89-.12,0-9.52,0-9.52,3.17,2,3.38,1.67,1.26,1.5,1,1.47.28,1.72,3,1.8.44,1.55-1.68.31Zm10.88-8.43-.57.78-.34-1.72-.43-1.13-.83-1-1-1.25L605,252.5l.51-.71,1,.82.62.64.77.7.73,1.23.69.93Z"/><path class="cls-1" d="M356.91,95.26l-.75-1.86.14-1-.45-1.56-.66-1,.51-.78-.43-1.49,1.25-.86,2.85-1.35,2.3-1,1.83.49.14.71,1.76,0,2.25.33,3.36,0,.94.31.44.9.08,1.29.51,1.11v1.16l-1.1.6.56,1.35,0,1.3.92,2.55-.2.82-.91.34L370.63,100l.47,1.31-.4-.17L369,100l-1.32.41-.86-.3-1.08.63-.92-1-.75.4-.1-.18-.84-1.44-1.36-.18-.17-.91-1.25-.33-.27.75-1-.6.11-.8-1.37-.25Z"/><path class="cls-1" d="M208.23,190.43l.93.26.33.58L209,192l-1.38,0-1.07.1-.11-1.25.26-.43Z"/><path class="cls-1" d="M568.38,120.7l.26.51-.69-.18-.79,1-.55,1,.07,2.1-.95.65-.33.51-.69.86-1.22.48-.79.78-.06,1.26-.21.32.73.47,1,1.28-.26.71-.78.19-1.29.14-.71,1.32-.82-.1-.11.26-.89-.56-.22.55-.54.24-.06-.55-.47-.27-.49-.47.5-1.29.43-.34-.16-.53.46-1.58-.12-.48-1.07-.32-.86-.78,1.49-1.87,2-1.57,1.26-2.07.87.92,1.58.11-.29-1.54,2.82-1.26.73-1.64Z"/><path class="cls-7" d="M312.93,122.2l.66-.74.75-.43.46,1.43h1.08l.31-.37,1.07.1.51,1.46-.85.79,0,2.28-.3.43-.07,1.38-.79.24.73,1.75-.5,1.92.63.87-.25.79-.68,1.09.15,1-.74.76-1-.41-.94.32.28-2.29-.17-1.8-.82-.27-.44-1.11.15-1.91.73-1.06.13-1.18.38-1.76,0-1.24-.37-1Z"/><path class="cls-1" d="M214.81,309.46l.72-3.5,0-1.57.88-2.57,3.19-.85,1.7,0,1.7,1.49,0,.9.54,1.62-.12,4,1.93.56.75-.57,1.24.79.34.87.17,2.68.21,1.12.68.13.69-.47.66.53v1.61l-.25,1.73-.36,1.69-.3,2.58-1.66,2.24-1.45.47-2.05-.45-1.84-.79,1.8-4.44-.26-1.29-1.88-1.14-2.23-2.16-1.5-.44Z"/><path class="cls-7" d="M422.38,172.21l-.12-2.12.49-1.53.5-.31.55.92,0,1.71-.4,1.72-.51.21Z"/><path class="cls-1" d="M371,104.68l.79-.63,1.13.32h1.17l.85.71.62-.45,1.35-.28.46-.68h.77l.56.28.57.87.58,1.23,1.06,1.74.06,1.28-.19,1.25.33,1.33.82.54.86-.47.83.5,0,.75-.89.63-.56-.27-.51,3.52-1.08-.31-1.33-1.06-2.15.68-.91.74-2.69-.15-1.41-.46-.71.21-.53-1.2-.33-.51.42-.49-.45-.36-.57.65-1.07-.85-.14-1.2-1.11-.69-.21-.93-1-1.15,1.47-.55,1.11-2,.87-2Z"/><path class="cls-1" d="M592.17,96.31l1.84,5.17-2.71-1-1.13,4.22,1.78,3-.05,2L590.52,108l-1.2,2.26-.34-2.45.2-2.84-.21-3.15.42-2.21.08-3.9-1.07-2.87.16-4,1.69-1.34-.73-1.35.81-.41.48,1.93.63,2.81,0,2.87ZM371,85.86l-3.36,0-2.25-.33.42-1.29,2.52-.95,1.92.51.81.46-.2.8ZM9.37,50.07l1.23.73-.42-2.12,5,.44,3.58,2.73-1.81,1.27-3,.3,0,2.85-.73.61-1.71-.09-1.39-1L7.6,54.92l-.41-1.27-1.86-.48-2.08.38-1-1,.4-1.09-2.19.69.82,1.37-1,1.24V43.12l4.48,2.23,4.79,2.9Zm649.28-12.4-2,.15-.33-.93,2.33-1.22Zm-656-.18-2.39.18v-2l.23-.12H2l2.65.84-.16.4Zm589.45-6.77-2.77,0-3.75-.33-.32-.15L587,29.1l2.29-.27,2.6,1.12Zm13-5.47L603,26.4l-2.92-.26L596.69,25l.44-.95,3.41.44Zm-10.32-1.4L593.36,26l-6.74-.08-3,.69L580,24.73l1-2,2.41-.55,4.83.13ZM434.68,38l-1.08.26-6-.38-.49-1.3-3.31-.78-.27-1.58,1.87-.63L425.36,32,429,29.5l-1.68-.36,4.38-2.56-.49-1.33,4.09-1.54,6-1.88,6.09-.55,3.13-1.08,3.56-.38L455.37,21l-1.23.91-6.48,1.45-5.59,1.39-5.68,2.78-2.73,2.85-2.87,2.81.37,2.43Zm90.41-18.26.49,1.44,1.67-.71,5.35,0,4.12,1.42L538.19,23l-.46,1.52-2,.86L530.9,27l-1.37.87,2.27.41,2.71.74,1.65-.55.93,1.87.8-.76,2.92-.46,5.87.48.45,1.37,7.65.43.1-2.23,3.88.51,2.92,0,3,1.54.84,1.87-1.08,1.22,2.3,2.3,2.88,1.19,1.76-3.06L574.26,36l3.12-.78,3.54.9,1.35-.82,3,.41L583.94,33l2.41-1.27,16.52,1.9,1.56,1.73,4.79,2.23,7.39-.55,3.64.48,1.52,1.21-.22,2.14,2.25.83,2.45-.6,3.24-.08,3.45.57,3.47-.32,3.19,2.6,2.27-.93-1.48-1.87.81-1.3,5.83.82,3.8-.17,5.26,1.39,2.56,1.27V54.77l-2.35,1.28-2.37-.21,1.65,1.55,1.09,2.41.85.79.21,1.21-.47.77-3.41-.64-5.11,2.2-1.63.34-2.8,2.05-2.65,1.79L641,69.64l-2.62-2-4.77,2.29-.83-1.08L631,70.08l-2.45-.4L628,71.6l-2.19,2.83.07,1.18,2.08.65-.24,4.25-1.7.11-.78,2.44.76,1.26-3.2,1.49-.63,3.33-2.73.71-.55,3-2.64,2.72-.68-2-.78-4.26-1-6.49.88-4L616.14,77l.1-1.36,2.84-.65,3.27-3.68,3.15-3L628.78,66l1.47-4.12-2.22.25-1.1,2.41-4.64,3.21-1.5-3.59-4.72,1L611.5,70,613,71.79l-4.08.76-2.83.3.13-2.11-2.84-.44-2.27,1.43-5.59-.5-6,.87-5.92,5.7-7,6.89,2.88.37.9,1.83,1.78.65,1.17-1.46,2,.19L588,89.47,588,92l-1.43,2.92-.15,3.49-.83,4.67-2.76,4.23-.61,2-2.48,3.4L577.29,116l-1.18,1.73-2.44,1.71-1.15,0-1.15-1.42-2.45,2.14-.29,1-.26-.51v-1.48l.93-.08.26-3.45-.48-2.5,1.57-1,2.22.52,1.23-2.84.63-3.2.71-1.07,1-2.63-3,.86L571.79,105H569l-.74-2.74-2.17-2.08-3.18-.93-.68-2.86-.64-1.79-.69-1.26-1.13-2.94-1.61-1.08-2.74-.87-2.42.08-2.27.53-1.51,1.45,1,.69,0,1.61-1,.94-1.65,3.1,0,1.28L545,99.92l-2.2-1.1-2.18.24-1-1-1.1-.32-2.68,2.06-2.41.48-1.68.72-2.3-.48-1.7,0-1.11-1.49-1.79-1.4-1.83-.38-2.31.38-1.73.54L516.46,97l-.35-2.19L514,94.06l-1.66-.34-2-1.21-1.89,3,.74,1.72-1.78,2-2.64-.73-1.83-.11-1.22-1.36-1.91,0-1.59-.9-2.78,1.37L491.87,100l-1.93.51-.72.24-1-1.79-2.36.39-.78-1.24-1.28-.57L483,95.9l-1-.53-2.63.75-2.52-1.68-1,1.53-4.09-7.42-2.33-2.26.67-.92-4.58,2.76-1.75.17.15-1.59-2.35-1-1.91.71-.58-3-3.29-.63L454.12,84l-4.58,1.08-.89.72-6.84,1-.84,1,1.32,2-1.76.76.34.8-1.76,1.42,3,2-.46,1.38L439.06,96l-.53.87-2.34-1.51-2.9.06-1.94,1.23-2.17-1.18-4-2-2.86.08-3.78,3.18-.23,2.13-1.88-1.69L415,100.37l.53.6-1.06,2.21,1.55,2,1.36-.08,1.17,2-.19,1.5.93.47-.83,1.73-1.77.48-1.82,3,1.66,2.77-.18,2,2,3.44-1.09,1.18-.31.74-.81-.2-1.26-1.77-.51-.1-1.15-.68-.56-1.2-1.71-.61-1.11.46-.32-.54-2.49-1.4-2.69-.47-1.55-.5-.22.34-2.33-2.47-2.09-1.1-1.58-1.72,1.33-.47,1.52-2.44-1-1.16,2.7-1.19,0-.64-1.64.47.06-1.3.94-.82,1.77-.21.29-1L402,102l.74-1.53,0-.86-2.7-1-1.07,0-1.13-1.37-1.4.46-2.32-1,0-.57L393.5,95,392,94.83l-.15-.91.46-.59-1.17-1.65-1.9.28-.56-.15-.46.66-.68-.12-.45-1.87-.43-1,.35-.27,1.48.1.71-.64-.53-.78-1.23-.51.11-.53-.74-.53-1.15-1.91.39-.79-.18-1.37-1.79-.7-1,.35-.26-.72L381,80.48l-.59-1.72-.16-1.42-.88-.67.78-.93L379.6,73l1.3-1.68-.28-.51,2.08-1.61-1.92-1.39,3.92-3.73,1.7-1.69.69-1.49-2.71-2,.75-1.9-1.65-2.17,1.23-2.5L382.59,49l1.69-2.2-2.8-1.95.27-2,1.48-.27,3.11-1.17,1.89-1,3,1.77,5,.69,6.91,3.3,1.4,1.39.12,1.94-2,1.53-3,.78-8.16-2.22-1.34.37,3,2.14.12,1.35.12,3,2.35.89,1.43.76.24-1.42-1.1-1.25,1.16-1.11,4.42,1.82,1.54-.71-1.23-2.14,4.26-2.86,1.69.17,1.71,1,1.07-2-1.53-1.74.9-1.75-1.34-1.81,5.12.94,1,1.64-2.32.36v1.62l1.44,1,2.83-.63.45-1.86,3.82-1.39,6.38-2.51,1.38.14-1.8,1.77,2.27.3,1.31-1,3.43-.08L437,43.36l2.08,1.76,2.08-1.93-1.92-1.69,1-1,5.4.88,2.53.91,6.63,3.34L456,44.14l-1.86-1.54-.05-.62-2.2-.29.6-1.38-1-2.28-.06-.93,3.38-2.64,1.2-2.65,1.36-.57,4.84.77.38,1.62L460.85,36l1.14.93.59,2-.42,4,2,1.79-.78,1.95-3.58,4.15,2.09.43.73-1.05,2-.75.49-1.44,1.58-1.39L465.65,45,466.5,43l-2-.24-.44-1.62,1.46-2.93-2.38-2.38,3.27-2L466,31.82l.91-.07,1,1.62-.72,2.82,2,.53-.83-2.11,3.06-1.15,3.8-.15L478.5,35l-1.63-2.43-.18-3.11,3.18-.59,4.4.13,4-.38-1.49-1.53,2.12-1.92,2.1-.08,3.56-1.45,4.83-.39.61-.8,4.8-.27,1.5.66,4.1-1.55,3.36,0,.5-1.26L516,18.81l4.32-1.2,3.14.95-2.49.72Zm-3.47-3.89L511.31,17l3.34-3.83,1.5-.33,1.37.19,4.64,1.66ZM423,9.3l-2.46.39-1.64.22-.26.48-2.14.48-2-.69,1-.91-4.07-.09L415,8.64l2.78,0,.37.79,1.05-.7L421,8.21l2.71.64Zm89.26,4.87-4,.36-5.09-.84-3-1.11-1.4-2.09-2.5-.58,4.75-2,4-.66,3.55,1.47,4.21,2.82Z"/><path class="cls-1" d="M385.08,247.81l.73,1.65-.11,1.72-.53.37-1-.19-.56,1.66-1.11-.23.17-1.6L383,251l.07-1.74.53-.81.44.3Z"/><path class="cls-1" d="M313.37,165.3l0-1.56h.28v.2l0,.57v4.42l-6-.15.06,7.47-1.71.26-.45,1.5.35,4.22-7.16,0-.4,1,.08-1.23h0l4.12-.23.22-1.05.75-1.31.6-4,2.54-3.15.86-3.68.57-.21.6-2.28,1.54-.31.66.38h.83l.59-.66Z"/><path class="cls-7" d="M407.69,196.76l-.24-1.25-.55-.88-.14-1.16-.94-1-1-2.45-.52-2.38-1.27-2-.82-.48L401,182.32l-.21-2,.08-1.73-1-3.24-.86-1.14-1-.6-.6-1.67.1-.66-.51-1.51-.53-.65-.71-2.17-1.11-2.35-.93-2h-.91l.28-1.6.08-1,.23-1.17,2,.46.79-.9.44-1.05,1.4-.4.3-1,.6-.5-1.82-2.92,3.66-1.47.35-.44,2.2.79,2.73,2,5.16,5.87,3.4.23,1.63.28.46,1.39,1.29-.08.72,2.52.9.67.31,1,1.25,1.23.11,1.2-.18,1,.23,1,.53.82.24,1,.27.72.55.58.51-.21.35,1.12.07.68.7,3,5.5,1.47.37-.62.84,2.07L430,186.09,424.55,189l-5.27,1.12-1.71,1.31-1.31,3.07-.85.49-.46-1-.7.15-1.77-.29-.34-.29-2.11.07-.5.26-.75-.76-.48,1.44.19,1.23Z"/><path class="cls-1" d="M391.57,216.86l-.25-.06,0-1.45-.22-1-.94-1.15-.22-2.11.22-2.16-.85-.2-.13.65-1.1.15.44.85.16,1.75-1,1.6-.91,2.11-.94.3-1.54-1.7-.69.6-.19.85-.94.55-.06.6h-1.82l-.25-.6-1.32-.1-.66.5-.5-.25-.94-1.7-.31-.8-1.32.4-.5,1.35-.47,2.61-.63.55-.56.32-.15-.14-.63-.84-.12-.91.3-1.22V215l-1.05-1.83-.21-1.25,0-.71-.67-.86,0-1.7-.38-1.13-.64.17.18-1.07.47-1.22-.21-1.21.6-.9-.38-.68.48-1.8.84-2.15,1.58.2L373,187.32l0-1.23h2.1v-5.83h21.7l.59,2.86-.4.53.27,3,.67,3.49.7.72,1,1.08-.93,1.67-1.35.48-.58.9-.18,1.94-.79,4.29.19,1.17-.29,2.51-.74,2.88-1.1,1.45-.78,2.23-.18,1.19-.87.82-.54,3.06Z"/><path class="cls-1" d="M391.57,216.86l0,2.28-.27.89-1,.07-.62,1.66,1.12.21.93,1.42.32,1.17.84.68,1.08,3.18-1.24,1.92-1.13,1.74-1.12,1.34h-1.29l-1.47.68-1.16-.65-.75.8-1.61-1.94-.43-1.25-1,.62-.85-.19-.49.49-.82-.35-1.11-2.41-.29-.93-1.37-1.16-.46-1.75-.76-1.26-1.23-1.52,0-.95-1-1.18-1.24-1.14.56-.32.63-.55.47-2.61.5-1.35,1.32-.4.31.8.94,1.7.5.25.66-.5,1.32.1.25.6h1.82l.06-.6.94-.55.19-.85.69-.6,1.54,1.7.94-.3.91-2.11,1-1.6-.16-1.75-.44-.85,1.1-.15.13-.65.85.2-.22,2.16.22,2.11.94,1.15.22,1,0,1.45Z"/><path class="cls-1" d="M298.88,204.8l-.75-2.27-.91-1,.8-.55.89-2,.43-1.5.63-.94.91.25.89-.64,1,0,.87.86,1.21.77,1.11,2.15,1.21,2,.08,1.82.36,1.67.68.82.16,1.13-.08.91-.26.16-1-.23-.14.32-.4.07-1.31-.71-.88,0-3.38-.12-.49.33-.61-.09-1,.48-.3-2.24,1.66.06.44-.41.33,0,.68-.67.78.62.79.05.79-.66-.37-.84-.6.49h-.57l-.72-.72-.58,0-.41.69Z"/><path class="cls-1" d="M625.95,275.1l.51,1-1.28,0-.7-1.8,1.09.71Zm-2.32-1.78-.71.07-1.12-.3-.38-.45.12-1.16,1.21.46.6.61Zm1.51-.8-.28.54-1.36-2.53-.38-1.74h.62l.66,2.34Zm-3.3-3.69.08.59-1.43-1.24-1-1-.69-1,.27-.3.84.7,1.5,1.34Zm-4.27-2.89-.36.17-.8-.67-.75-1.2.09-.49,1.09,1.23Z"/><path class="cls-1" d="M308.53,224.68l-.49-.22-1.32-1.18-1-1.56-.32-1.07-.22-2.16,1-1.28.21-.81.31-.63.5-.07.43-.55h1.46l.51,1,.4,1.23-.06.85.29.76,0,1.07.5-.17-.85,1.36-.83,1.58-.1.85Z"/><path class="cls-1" d="M168.89,205.41l-.2.69-1.06,0-.66-.28-.76-.58-1-.18-.52-.63.06-.43.63-.74.34-.32-.1-.34.43-.18.54.25.39.58.55.47.07.39.8-.35.38.21.25.32Z"/><path class="cls-1" d="M419,216.89l-.83,1.79-1.28,2.44-1.54,0-6-3.47-.7-1-.67-1.41-.68-1.61.4-1,.67-1.56.6.54.36,1.21.83,1.22H411l1.72-.75,2-.35,1.61-.91.91-.19.65-.53,1-.1v5.72Z"/><path class="cls-1" d="M420.4,210.68l1-.29.87-1h.69l0,.81-.17,1.7v1.53l-.39,1.05-.52,3.16L421,220.9l-1.13,3.73-1.57,4.28-1.56,3.27-2.15,4-1.83,2.36-2.74,2.9-1.7,2.22-2,3.54-.42,1.54-.41.69L404.42,247l0-10.64,1.6-3.31.5-.92,1.17-.05L409.3,230l2.38-.13,5.17-8.76,1.28-2.44.83-1.79v-5.72l.58-.06Z"/><path class="cls-1" d="M367.63,111.88l1.11.69.14,1.2,1.07.85.57-.65.45.36-.42.49.33.51-.45.66.16,1.07.89,1.26-.7.91-.31.93.2.35-.3.41-.85,0-.62.17-.06-.22.22-.35.21-.71-.26,0-.36-.54-.3-.14-.24-.46-.34-.18-.26-.41-.33.16-.25,1-.44.21.15-.25-.7-.61-.6-.31-.27-.4-.49-.5.43-.13.27-1.37-.88-1.12.46-1.28h-.66l.7-1.1-.58-.83-.44-1.13,1.4-.77,1.14.13,1,1.15Z"/><path class="cls-1" d="M224.93,227.05l2.19.58.2-.53,1.48-.21,2,.78-1,2.51.14,2,.72,1.73-.32,1.26-.16,1.34-.47,1.23-1-.62-.86.3-.74-.26-.18.85.31.58-.16.6-1-.24-1.12-2.54-.24-1.65h-.59l-.81-2.12.34-1.51-.1-.69,1.11-.76Z"/><path class="cls-1" d="M363.93,100l.1.18.75-.4.92,1,1.08-.63.86.3L369,100l1.74,1.12-.51.76-.36,1.18-.39.3-2-.89-.6.18-.43.69-.86.36-.2-.19-.89.45-.73.09-.15.59-1.54.36-.67-.32-.93-.75-.18-1,.15-.37.26-.64.81,0,.62-.3,0-.27.35-.14.12-.66.42-.13.28-.53Z"/><path class="cls-1" d="M354.7,108.69l1.51.23.92-.66,1.6-.07.35-.49.31,0,.36,1-1.46.78-.18,1.18-.64.3v.82l-.72-.06-.62-.48-.33.49-1.27-.1.41-.26-.44-1.24Z"/><path class="cls-13" d="M370,52.58l-1.77,2,.29,1.79-2.91,2.35-3.53,2.51-1.33,4.11,1.3,2.06,1.75,1.62-1.68,3.29-1.9.68-.7,4.9-1,2.74-2.22-.28-1,2.32-2.12.13-.58-2.76L351,76.76l-1.39-4.13.81-1.68,1.52-2,.6-3.43L351.38,64l-.11-3.88,1.19-2.74,1.81,0,.64-1.16-.67-1,2.84-4.11L358.91,48l1.21-2.08h1.76l.48-1.63,3.45.47.27-1.92,1.13-.12,2.44,1.43,2.85,2,0,4.5.62,1.14Z"/><path class="cls-7" d="M388.11,322.56l-.37,1.3-1.07.32-1.09-1.58,0-1,.5-1.1.17-.85.53-.21.92.53.27,1.31Z"/><path class="cls-1" d="M400.4,147l-3.58,3.11-2-1.16,0,0,.25-.44,0-1.2.45-1.6,1-1.1-.3-1.15-.82-.15-.17-2.23.45-1.2.49-.64.49-.64.1-1.63.6.57,2-.81,1,.55h1.5l2.1-1.1,1,0,2.08-.45L406,137.6l-1,.72.17,2.13-.69,3.53Z"/><path class="cls-1" d="M356,206.94l.18-1.38L355,205.5v-1.88l-.76-1.08.79-3.85,2.33-2.75.1-3.8.7-5.93.4-1.26-.76-1,0-.93-.68-.76-.45-4.54,1.85-1.6,7.29,5.59,7.29,5.59.09,11.59-1.58-.2-.84,2.15-.48,1.8.38.68-.6.9.21,1.21-.47,1.22-.18,1.07.64-.17.38,1.13,0,1.7.67.86,0,.71-1.16.5-.93,1.18-1.32,3.19-1.72,1.35-1.77-.18-.52.27.18,1-1,1-.78,1.14-2.3,1.12-.46-.66-.3-.06-.34.75-1.51.22.29-.79-.58-2-.26-1.21-.8-.5-1.08-1.7.4-1.38.83.29.52-.21,1,0-1-2.65.07-1.94-.12-1.94Z"/><path class="cls-1" d="M332.86,226.56l-1.47.62-.41-1-.49-1.85-.15-1.45.4-2.63-.46-1.07-.17-2.3v-2.12l-.76-1.51.13-.91,1.6.06-.23,1.54.56.86.64,1,.07,1.43.37.6-.08,6.71Z"/><path class="cls-1" d="M517.07,208.91l-1.64-1.34-1.56.05.27-2.29-1.61,0-.14,3.21-1,4.27-.59,2.58.13,2.11,1.19.09.74,2.67.33,2.53,1,1.67,1.11.34.95,1.52-.6,1.2-1.21.35-.14-1.5-1.49-1.28-.32.52-.72-1.12-.31-1.45-1-1.65L509.6,220l-.3,1.72-.35-1.62.2-1.82.54-2.8.89-3,1-2.72-.71-2.66,0-1.36-.21-1.63-1.22-2.32-.44-1.46.63-.54.67-2.54-.75-1.93-1.16-2.13-.88-2.56.77-.53.83-3.16,1.29-.13,1.07-1.27,1-.68.79.9.11,1.75,1.24.13-.45,3.08,0,2.62,1.93-1.74.55.51,1.07-.08.37-1,1.38.2L521,193.6l.11,2.88,1.48,2.54-.08,2.47-.6,1.32-1.71-.42-2.36.56-1.17,2.43Z"/><path class="cls-1" d="M459.33,127l-.67.9-2-.49-.17,1.68,2-.23,2.26.95,3.46-.44.46,2.7.6-.29,1.11.66-.06,1.14.27,1.66h-1.89l-1.26-.22-1.14,1.31-.81.29-.64.61-.72-1,.17-2.45-.55-.14.2-.89-1-.66-.79,1-.19,1.18-.28.43-1.09-.06L456,136l-.62-.56-1.32.94-.56-.36,1-3-.4-2.17-1.34-.7.47-1.29,1.53.14.87-1.61.58-1.87,2.45-.68-.38,1.35.26.81Z"/><path class="cls-1" d="M441.4,140.4l-.16-2.46-1.36-.1-2.09-2.59-1.46-.32-2-1.48-1.3-.27-.8.54-1.22-.08-1.3,1.67-1.61.57-.34-2.07.27-3.05-1.43-1,.47-2-1.21-.17.4-2.46,1.72.72,1.61-.93-1.33-1.75-.52-1.67-1.47.74-.19,2.14-.57-1.89.81-1,2.08-.61,1.24.82,1.28,2.29.94-.14,2.06,0-.3-1.47,1.56-1,1.54-1.7,2.46,1.54.2,2.33.7.6,2-.13.61.53.9,3,2.09,2,1.19,1.37,1.91,1.43,2.43,1.25-.05,1.79-.55-.09-.86-.78-.29,1-1.54.56-.37,2.34-1,.89-1.44.44-.38,1.32-1.38.39Z"/><path class="cls-1" d="M558,270.46l.22-.69,1.57-.66,1.28-.1.57-.36.69.36-.67.79-1.91,1.28-1.53.84,0-.89Z"/><path class="cls-1" d="M216.64,213.07l1.05-.38.38.1L218,215l-1.53.32-.33-.26.53-.8Z"/><path class="cls-1" d="M346.79,156l-.78-5.24-1.13-1.18,0-.71-1.5-1.74-.16-2.2,1.13-1.63.43-2.41-.29-2.78.37-1.5,2-1.18,1.28.35-.05,1.48,1.55-1.07.13.56-.91,1.43v1.35l.63.73-.24,2.53-1.2,1.47.35,1.59.95,0,.46,1.39.7.46-.1,2.24-.89.84-.56.94-1.26,1.13.19,1.21-.16,1.23Z"/><path class="cls-1" d="M397,123.79l2.62,1.13,2.13-.45,1.57.26,2.16-1.52,1.95-.14,1.76,1.43.31,1-.18,1.42,1.36.73.72.85-1.25.83.57,3.35-.36.9,1,2.34-.88.49-.64-.74-2.13-.38-.79.45-2.08.45-1,0-2.1,1.1h-1.5l-1-.55-2,.81-.6-.57-.1,1.63-.49.64-.49.64-.67-1.32.69-1.1-1.12.25-1.53-.67-1.26,1.68-2.78.33-1.48-1.57-2-.1-.42,1.21-1.26.35L382,137.4l-2,.05-1.08-2.9-1.34-1.62.89-2.27-1.16-1.4,2-2.79,2.82-.12.77-2.22,3.49.39,2.2-1.89,2.13-.83,3-.06Zm-17.78,1.88-1.53,1.57-.58-1.36,0-.6.43-.33.57-1.83-.89-.77,1.86-.92,1.57.39.22,1.12,1.6.94-.33.72-2.17.16Z"/><path class="cls-1" d="M391.46,247.27l.31.32,6.63,5.95.12,1.69,2.63,2.92-.84,3.6.11,1.65,1.17,1.06.05.76-.5,1.76.1.89-.12,1.39.64,1.83.76,2.88.67.64-1.46,1.69-2,1.13-1.1,0-.65.88-1.27.08-.48.37-2.2-.82-1.38.24-.51-4-.62-1.36-.37-.81-1.79-.54-1-.88-1.16-.49-.73-.49-.76-.74-1-3.68-1.06-1.64-.37-1.69.18-1.52-.33-2.69.76-.14.66-1.06.71-1.52.45-.61,0-.95-.39-.66-.11-1.15.53-.37.11-1.72-.73-1.65.64-.35,2,0Z"/><path class="cls-1" d="M387.73,247.49l-2,0-.64.35-1.09.9-.44-.3,0-2.2.42-1.12.1-2.34.38-1.36.7-1.52.7-.78.59-1-.73-.4.11-3.41.75-.8,1.16.65,1.47-.68h1.29l1.12-1.34.87,2,.21,1.47.8,3.35-.67,2.13L392,243l-.52,1.18,0,3.09Z"/><path class="cls-1" d="M387.58,92.36l.68.12.46-.66.56.15,1.9-.28,1.17,1.65-.46.59.15.91,1.46.14.65,1.27,0,.57,2.32,1,1.4-.46L399,98.74l1.07,0,2.7,1,0,.86L402,102l.4,1.61-.29,1-1.77.21-.94.82-.06,1.3-1.46.23-1.22.94-1.71.15-1.58,1.09.11,1.82.89.7,1.87-.18-.36,1-2,.51L391.42,115l-1-.59.4-1.37-2-.85.32-.56,1.75-1-.53-.67-2.84-.74-.13-1.09-1.69.36-.68,1.61-1.42,2.16-.83-.5-.86.47-.82-.54.46-.32.32-1,.5-.93-.13-.52.38-.23.18.4,1.08.09.48-.22-.34-.3.13-.44-.64-.74-.26-1.22-.67-.48.13-1-.83-.79-.75-.11-1.35-.91-1.22.29-.44.43h-.77l-.46.68-1.35.28-.62.45-.85-.71h-1.17l-1.13-.32-.79.63-.13-.78-1-.79.36-1.18.51-.76.4.17-.47-1.31,1.66-2.43.91-.34.2-.82-.92-2.55.87-.11,1-.79,1.42-.06,1.85.23,2,.7,1.44.06.69.42.69-.51.48.68,1.65-.14.73.28.12-1.47.56-.64Z"/><path class="cls-1" d="M224.06,332.73l1.19-.31,1.83,2.26.68-.09,1.88,1.87,1.43,1.61,1.06,2-.81,1.39.51,1.65-.79,1.84L229,346.56l-1.35-.58-1,.31L224.95,345l-1.24.09-1.11-1.62.14-1.89.4-.65,0-2.91.49-3Z"/><path class="cls-6" d="M45,188.77l-.27.49-.45-.42.05-.82L44,187l.09-.32.32-.48-.13-.57.11-.27.14.05.7.49.32.25.3.39.47,1,0,.16-.71.62Zm-1-4.56-.61.21-.32-.61-.21-.24,0-.18.18-.25.65.28.48.45Zm-1.24-1.56-.06.32-1-.08.14-.36Zm-1.64-.42-.1.17-.13,0-.64-.1L40,181.6l-.07-.12.49-.4.15.19ZM38,180.31l-.22.29-.62-.53.09-.21.28-.29.42.06Zm118-80,.32,1.6.57.49,1.28.18,1.87.47,1.77.91,1.48-.38,2.25.76.6,0,1.64-.83,1.72,1.06,1.79,1.13,1.48,1,1.42.93.18.77.43.29-.11.29.49.09.36-.3.09.69.37.46h.5l.27.36-.23.52,1.91,1.37.39,2.65.37,2.54-.53,1.73-.86,1.61-.4,1,0,.3.21.42.62.46h.46l2.12-1.56,1.88-.46,2.39-1.45,0-.3-.16-.89-.3-.57.83-.46H189l.59-1.14.23-.23,1.93-2.1.83-.54,2.78,0h3.37l.18-.72.59-.15.78-.45.65-1.33.56-2.27,1.4-2.2.61.77,1.23-.5.81.84v4l1.2,1.65.32,1-2,1.41-1.88,1-1.93.86-1,1.73-.31.66,0,1.55.6,1.55.76.07-.19-1.07.55.65-.15.83-1.23.47-.88-.06-1.35.51-.8.15-1.06.14-1.52.85,2.69-.55.54.55-2.56.88h-1.17l.05-.36-.56.81.54.13-.39,2.1-1.33,2.25-.14-.75-.4-.15-.6-.73.38,1.57.45.52,0,1.1-.59,1.13-1,2.33-.17-.12.57-2L190,132.6l-.21-2.43-.35,1.26.39,1.85-1.21-.46,1.26.94.08,2.78.52.2.19,1,.26,2.92-1.16,2.17-1.89.87-1.2,1.71-.91.19-.93,1.07-.26,1-2,1.9-1,1.39-.86,1.73-.28,2.07.32,2,.61,2.5.81,2.07v1.26L183,166l-.06,2-.08,1.14-.46,1.78-.55.37-.9-.35-.29-1.28L180,169l-1-2.51-.85-2.23-.27-1.14.38-1.94-.51-1.61-1.43-2.44-.71-.45L173.8,158l-.33-.15-.89-1.36-1.15-.72-2.07.37-1.62-.32-1.39.2-.76.46.33.78,0,1.18.39.58-.35.38-.68-.43-.69.55-1.33-.09-1.37-1.54-1.6.36-1.33-.68-1.14.2-1.54.68-1.66,2.16-1.82,1.26-1,1.39-.42,1.31,0,2,.09,1.4.35,1-.71.09-1.3-.64-1.43-.91-.51-1.37-.4-2-1.08-1.66-.63-1.71-.92-2-1.29-1.16-1.5.06-1.15,2.31-1.52-.88-.95-.88-.45-1.61-.61-1.53-1.09-1.28-.94-.92-.67-1h-3.17V153H130l-3.64,0-4.17-2.06-2.76-1.42.17-.57-2.32.32-2.08.22-.31-1.49-1.19-1.68-.85-.35-.2-.84-1-.15-.65-.79-1.7-.29-.47-.47-.22-1.6-1.77-2.93-1.52-4.06.06-.68-.81-1-1.42-2.45-.25-2.38-1-1.59.4-2.42-.06-2.5-.58-2.24.71-2.75.22-2.65.22-2.65-.33-3.92-.58-2.5-.53-1.36.22-.57,2.64,1,1,2.76.45-.77-.29-2.39-.62-2.39h50.63v-1.12ZM49.62,77.72l-1.83,1.11-.94-.75-.28-1.37,1.66-1,1-.44,1.21.2.77.91Zm-23-8.16L25.5,70l-1.2-.55-1.11-.79,1.81-.5,1.45.26ZM15.37,58.25l1.13.56,1.14-.3,1.48.77,1.82.39-.15.32-1.39.62L18,60l-.7-.53-1.61.17-.44-.26ZM45.85,36.74l1.32,1.32L48,37.5l3.09.18-.11.67,2.8.5,1.87-.29,3.85.92,3.52.27,1.41.38,2.43-.47,2.77.88,2,.41h0V68.4l1.8.09,1.78.81,1.28,1.28,1.62,1.92,1.78-1.63,1.84-.95,1,1.51,1.23,1.2,1.67,1.32L86.7,76l1.87,3.33,3.11,1.86.05,1.84-1,1.41-1-1.1-1.61-.93-.52-2.55-2.36-2.36-1-2.76-1.76-.19-2.91-.07-2.14-.84-3.78-3-1.75-.55-3.2-1-2.53.25L62.57,68l-2.17-1.24-2,.62.38,2-1,.19-2.12.61-1.61,1-2,.62L51.72,70l.82-2.86,1.94-.9-.5-.73-2.33,1.63L50.4,69.11l-2.64,2.08,1.34,1.42-1.73,2.1-2,1.22-1.83.89-.45,1.29-2.86,1.51L39.69,81l-2.14,1.25L36.3,82l-1.71.81-1.86,1-1.52,1-3.14.83-.29-.49,2-1.36,1.79-.9,1.95-1.6L35.8,81l.9-1.2L39.23,78l.41-.58,1.35-1,.32-2.21.93-1.72-2.11.89-.59-.5-1,1.06-1.19-1.48-.49,1L36.18,72l-1.83,1.17H33.23l-.16-1.74.33-1.07-1.18-1-2.38.56L28.3,68.51,27,67.81V66.16l-1.41-1.24.71-1.68,1.49-1.63.65-1.5L30,59.89l1.25.47L32.69,59,34,59.2l1.39-.91L35.08,57l-1-.53,1.35-1.13-1.12,0L32.34,56l-.56.64L30.34,56l-2.59.33-2.68-.7-.77-1.17L22,52.74l2.57-1.22,4.08-1.43h1.5l-.25,1.46,3.86-.11-1.48-1.81L30,48.51l-1.3-1.46L27,45.81l-2.51-.92,1-1.53,3.24-.09L31,41.93l.44-1.42,1.87-1.39,1.78-.33,3.47-1.3,1.68.2,2.81-1.56Z"/><path class="cls-1" d="M451.11,135.39l.05-1.79-2.43-1.25-1.91-1.43-1.19-1.37-2.09-2-.9-3L442,124l-2,.13-.7-.6-.2-2.33-2.46-1.54-1.54,1.7-1.56,1,.3,1.47-2.06,0-.07-10.77,4.71-1.73.34.25,2.83,2.09,1.5,1.1,1.75,2.63L445,117l3.14-.23,2.19,2.13-.14,2.93.89,0,.37,2.39,2.33.09.5,1.38.68,0,.8-2.09,2.41-2,1-.54.54.29-1.53,1.89,1.35,1.1,1.3-.73,2.17,1.54-2.34,2.1-1.39-.29-.75.08-.26-.81.38-1.35-2.45.68-.58,1.87-.87,1.61-1.53-.14-.47,1.29,1.34.7.4,2.17-1,3-1.38-.62Z"/><path class="cls-1" d="M199,210.11l-.05.69-1.07.34.6,1.33,0,1.53-.81,1.7.69,2.32.79-.19.41-2.11-.57-1-.09-2.21,2.28-1.19-.25-1.38.64-.92.66,2.05,1.28,0,1.19,1.63.07,1,1.64,0,2-.3,1,1.31,1.4.36,1-.91,0-.74,2.27-.18,2.19,0-1.55.86.62,1.38,1.46.22,1.39,1.44.29,2.34,1-.07.72.69-1.45,1.72-.16,1.06.63,1.08-.45.55-1.13.47,0,1.35-.5.8,1.24,2.22.24.82-.67,1.11-2,1.09-1.32.45-.53.69-1.45-.73-1.35-.37-.34.27.82.76-.07,2,.25,1.84,1.55.25.1.61-1.31.83-.21,1.24-.75.48-1.36.68-.35.89-1.42.19-1-1.54-.56-2.91-.49-1-.66-.64.93-1.45-.06-.65-.52-.87-.37-1.94.14-2.09.41-1,.33-1.57-.65-.5-1,.33-1.32-.16-.74.31-1.29-2.51-1.06-.37-2.35.28-.44-1-.45-.24-.06-.61.22-1.08L197,220l-.4-.64-.23-1.34-.94-.2.51-1.71.22-2.08.53-1.09.71-.84.46-1.46Z"/><path class="cls-1" d="M527.06,181.56l-2.44,2.5-1.52,2.76-.4,2,1.4,3.08,1.71,3.82,1.66,1.8,1.11,2.34.84,5.4-.25,5.14-1.53,1.92-2.09,1.88-1.49,2.43-2.28,2.72-.66-1.87.51-2-1.36-1.66,1.58-1.18,1.92-.21-.8-1.77,3.07-2.25.23-3.5-.42-1.95.33-2.92-.46-2.06-1.38-2-1.15-2.57L521.66,190l-2.19-1.75.52-1,1.17-.76-.71-2.55-2.25,0-.82-2.65-1.07-2.31,1-.71h1.46l1.78-.34,1.56-1.56.88,1.1,1.67.53-.29,1.68.87,1.19Z"/><path class="cls-1" d="M636.42,292.58l-.6.38-.61-1.28.07-.78Zm-1.35-4.47.3,2.35-.49-.37-.38.16-.26-.81,0-2.24Z"/><path class="cls-1" d="M394.46,149.9v1.79l-.27.86-.86.4.08-.77.47-.4-.46-.33.38-1.94Z"/><path class="cls-1" d="M426.58,195.87l-1.32.78-.35,1.3,0,1L423,200.18l-2.92,1.36-1.64,2.06-.81.16-.55-.17-1.07,1.21-1.17.56-1.54.15-.46.17-.4.77-.48.21-.28.74-.91-.06-.58.4-1.27-.15-.48-1.71.05-1.6-.3-.86-.36-2.16-.53-1.2.37-.14-.19-1.33.22-.56-.08-1.27.8-.93-.19-1.23.48-1.44.75.76.5-.26,2.11-.07.34.29,1.77.29.7-.15.46,1,.85-.49,1.31-3.07,1.71-1.31,5.27-1.12,1.43,4.82Z"/><path class="cls-1" d="M387.1,329.93l-.36.42-.78,1.48-.51,1.5-1,2.09-2.07,3-1.29,1.75-1.38,1.33-1.91,1.13-.93.15-.24.81-1.11-.43-.91.56-2-.56-1.11.36-.76-.15-1.89,1.15-1.56.46-1.13,1.1-.83.07-.77-1-.62-.05-.79-1.3-.09.4-.24-.78v-1.71l-.59-2,.59-.53,0-2.24-1.2-2.73-.92-2.47h0l-1.31-3.79.88-1.44.72.8.31,1.25.82.21,1.15.55,1-.21,1.63-1.49V316.82l.49.44,1.08,2.77-.17,1.78.41,1,1.31-.3.91-1.3.87-.88.45-1.4.89-.68.77.35.87.82,1.49.14,1.17-.68.19-.91.32-1.4,1-.23.55-1.1.61-1.95,1.64-2.18,2.59-2.15.74,0,.88.49.62-.35,1,.29.88,4.11.48,2.07-.33,3.26.16,1-.92-.53-.53.21-.17.85-.5,1.1,0,1,1.09,1.58,1.07-.32.37-1.3,1.39,0-.46,2.13-.22,2.43-.47,1.32Zm-4.65-.88-.8-.9-.85.6-1,1.14-1,1.85L380.2,334l.65-.29.34-.93,1-.46.31-1,.56-1.42Z"/><path class="cls-1" d="M389.36,271.45l.86,1.3.47,2.48-.31.79-.37,2.37.35,2.42-.58,1-.56,2.71,1,.76-5.55,2.41.17,2.08-1.39.4-1,1.16-.22,1-.65.23-1.59,2.4-1,1.89-.62.07-.59-.34-2-.32-.33-.22v-.24l-.72-.66-1.19-.17-1.5.66-1.19-1.82-1.23-2.39.08-9.29,3.81,0-.16-1,.27-1.09-.32-1.37.21-1.42-.19-.91.63.07.1.91.86-.07,1.16.27.61,1.33,1.46.41,1.12-.92.41,1.53,1.4.41.67,1.24.75,1.61,1.4,0-.15-3.15-.5.53-1.28-1.14-.49-.52.23-2.93.32-3.46-.41-1.29.52-1.86.49-.35,2.46-.49.72.3.76.74.73.49,1.16.49Z"/><path class="cls-1" d="M386.5,309.47l-1-.29-.62.35L384,309l-.74,0-1.17-1.32-1.41-.45-.54-1.85v-1l-.78-.31-2.07-3.21-.58-1.69-.37-.52-.7-2.33,2,.32.59.34.62-.07,1-1.89,1.59-2.4.65-.23.22-1,1-1.16,1.39-.4.12,1.09,1.53-.06.85.62.39.72.87.21.95.94V297l-.36,2-.08,2.18.29.86-.21,1.72-.28.27-.48,2.11Z"/></g></g></svg>