<svg xmlns="http://www.w3.org/2000/svg" 
    xmlns:xlink="http://www.w3.org/1999/xlink" width="823" height="657">
    <style type="text/css">
    .webs polygon,.lines line {
        fill:white;
        fill-opacity: 0;
        stroke:gray;
        stroke-opacity: 0.18;
        stroke-dasharray:3 2;
        stroke-width:1.4;
    } 
    .texts text{
        font-size:0.7rem;
        text-anchor: middle;
        color:#212529
    }
    .radar polygon {
        fill-opacity: 0;
        stroke-width: 2;
    }
    </style>
    <g class="main" transform="translate(411.5,328.5) scale(1)">
        <g class="webs">
            <polygon points="0,219 128.7249702520516,177.1747217681135 208.28137706863862,67.67472176811349 208.28137706863865,-67.67472176811347 128.72497025205163,-177.17472176811347 2.6819764901327035e-14,-219 -128.7249702520516,-177.1747217681135 -208.28137706863862,-67.67472176811351 -208.28137706863865,67.67472176811344 -128.72497025205166,177.17472176811347 "></polygon>
            <polygon points="0,197.1 115.85247322684646,159.45724959130214 187.45323936177476,60.90724959130214 187.4532393617748,-60.90724959130212 115.85247322684647,-159.45724959130212 2.413778841119433e-14,-197.1 -115.85247322684643,-159.45724959130214 -187.45323936177476,-60.90724959130216 -187.4532393617748,60.9072495913021 -115.8524732268465,159.45724959130212 "></polygon>
            <polygon points="0,175.2 102.97997620164129,141.7397774144908 166.62510165491088,54.13977741449079 166.6251016549109,-54.13977741449077 102.9799762016413,-141.73977741449076 2.1455811921061628e-14,-175.2 -102.97997620164126,-141.7397774144908 -166.62510165491088,-54.13977741449081 -166.6251016549109,54.13977741449075 -102.97997620164132,141.73977741449076 "></polygon>
            <polygon points="0,153.29999999999998 90.10747917643612,124.02230523767943 145.79696394804702,47.37230523767944 145.79696394804705,-47.37230523767942 90.10747917643614,-124.02230523767942 1.8773835430928922e-14,-153.29999999999998 -90.1074791764361,-124.02230523767943 -145.79696394804702,-47.372305237679456 -145.79696394804705,47.372305237679406 -90.10747917643616,124.02230523767942 "></polygon>
            <polygon points="0,131.39999999999998 77.23498215123095,106.30483306086808 124.96882624118315,40.60483306086809 124.96882624118317,-40.604833060868074 77.23498215123097,-106.30483306086806 1.609185894079622e-14,-131.39999999999998 -77.23498215123094,-106.30483306086808 -124.96882624118315,-40.6048330608681 -124.96882624118317,40.60483306086806 -77.23498215123098,106.30483306086806 "></polygon>
            <polygon points="0,109.5 64.3624851260258,88.58736088405675 104.14068853431931,33.83736088405674 104.14068853431932,-33.837360884056736 64.36248512602582,-88.58736088405674 1.3409882450663518e-14,-109.5 -64.3624851260258,-88.58736088405675 -104.14068853431931,-33.83736088405676 -104.14068853431932,33.83736088405672 -64.36248512602583,88.58736088405674 "></polygon>
            <polygon points="0,87.6 51.489988100820646,70.8698887072454 83.31255082745544,27.069888707245394 83.31255082745545,-27.069888707245386 51.48998810082065,-70.86988870724538 1.0727905960530814e-14,-87.6 -51.48998810082063,-70.8698887072454 -83.31255082745544,-27.069888707245404 -83.31255082745545,27.069888707245376 -51.48998810082066,70.86988870724538 "></polygon>
            <polygon points="0,65.69999999999999 38.617491075615476,53.15241653043404 62.484413120591576,20.302416530434044 62.48441312059158,-20.302416530434037 38.61749107561548,-53.15241653043403 8.04592947039811e-15,-65.69999999999999 -38.61749107561547,-53.15241653043404 -62.484413120591576,-20.30241653043405 -62.48441312059158,20.30241653043403 -38.61749107561549,53.15241653043403 "></polygon>
            <polygon points="0,43.8 25.744994050410323,35.4349443536227 41.65627541372772,13.534944353622697 41.65627541372773,-13.534944353622693 25.744994050410327,-35.43494435362269 5.363952980265407e-15,-43.8 -25.744994050410316,-35.4349443536227 -41.65627541372772,-13.534944353622702 -41.65627541372773,13.534944353622688 -25.74499405041033,35.43494435362269 "></polygon>
            <polygon points="0,21.9 12.872497025205162,17.71747217681135 20.82813770686386,6.767472176811348 20.828137706863863,-6.767472176811347 12.872497025205163,-17.717472176811345 2.6819764901327035e-15,-21.9 -12.872497025205158,-17.71747217681135 -20.82813770686386,-6.767472176811351 -20.828137706863863,6.767472176811344 -12.872497025205165,17.717472176811345 "></polygon>
        </g>
        <g class="lines">
            <line x1="0" y1="0" x2="0" y2="229.95000000000002"></line>
            <line x1="0" y1="0" x2="135.1612187646542" y2="186.0334578565192"></line>
            <line x1="0" y1="0" x2="218.69544592207055" y2="71.05845785651917"></line>
            <line x1="0" y1="0" x2="218.69544592207058" y2="-71.05845785651915"></line>
            <line x1="0" y1="0" x2="135.16121876465422" y2="-186.03345785651916"></line>
            <line x1="0" y1="0" x2="2.816075314639339e-14" y2="-229.95000000000002"></line>
            <line x1="0" y1="0" x2="-135.1612187646542" y2="-186.0334578565192"></line>
            <line x1="0" y1="0" x2="-218.69544592207055" y2="-71.0584578565192"></line>
            <line x1="0" y1="0" x2="-218.69544592207058" y2="71.05845785651911"></line>
            <line x1="0" y1="0" x2="-135.16121876465425" y2="186.03345785651916"></line>
        </g>
        <g class="texts">
            <text x="0" y="248.34600000000003" transform="rotate(180,0 248.34600000000003)">校企合作论文数</text>
            <text x="145.97411626582655" y="200.91613448504074" transform="rotate(144,145.97411626582655 200.91613448504074)">校企合作论文占比</text>
            <text x="236.1910815958362" y="76.74313448504071" transform="rotate(108,236.1910815958362 76.74313448504071)">校企合作论文总被引频次</text>
            <text x="236.19108159583624" y="-76.7431344850407" transform="rotate(72,236.19108159583624 -76.7431344850407)">企业资助项目产出论文数</text>
            <text x="145.97411626582658" y="-200.91613448504071" transform="rotate(36,145.97411626582658 -200.91613448504071)">校企合作专利数</text>
            <text x="3.0413613398104865e-14" y="-248.34600000000003" transform="rotate(0,3.0413613398104865e-14 -248.34600000000003)">校企合作专利数占比</text>
            <text x="-145.97411626582655" y="-200.91613448504074" transform="rotate(-36,-145.97411626582655 -200.91613448504074)">校企合作专利总被引频次</text>
            <text x="-236.1910815958362" y="-76.74313448504074" transform="rotate(-72,-236.1910815958362 -76.74313448504074)">海外同族合作专利数</text>
            <text x="-236.19108159583624" y="76.74313448504064" transform="rotate(-108,-236.19108159583624 76.74313448504064)">校企合作专利施引专利数</text>
            <text x="-145.9741162658266" y="200.91613448504071" transform="rotate(-144,-145.9741162658266 200.91613448504071)">与上市公司关联强度</text>
        </g>
        <g class="radar">
            <g class="polygon">
                <polygon points="0,145.3198757763975 54.41272897127786,74.89269639956488 149.36513096555757,48.53167298111724 42.17267552216237,-13.702732919989916 25.549065632979506,-35.16527202216438 7.450326281393608e-15,-60.836530880420504 -24.164644665445802,-33.259780032129804 -10.278414649930314,-3.339659365811213 -41.98171506539747,13.640686106385365 -46.1053246299259,63.45853525808428 " style="stroke: rgb(240, 72, 100);"></polygon>
            </g>
            <g class="circles">
                <circle cx="0" cy="145.3198757763975" r="4" style="fill: rgb(240, 72, 100);"></circle>
                <circle cx="54.41272897127786" cy="74.89269639956488" r="4" style="fill: rgb(240, 72, 100);"></circle>
                <circle cx="149.36513096555757" cy="48.53167298111724" r="4" style="fill: rgb(240, 72, 100);"></circle>
                <circle cx="42.17267552216237" cy="-13.702732919989916" r="4" style="fill: rgb(240, 72, 100);"></circle>
                <circle cx="25.549065632979506" cy="-35.16527202216438" r="4" style="fill: rgb(240, 72, 100);"></circle>
                <circle cx="7.450326281393608e-15" cy="-60.836530880420504" r="4" style="fill: rgb(240, 72, 100);"></circle>
                <circle cx="-24.164644665445802" cy="-33.259780032129804" r="4" style="fill: rgb(240, 72, 100);"></circle>
                <circle cx="-10.278414649930314" cy="-3.339659365811213" r="4" style="fill: rgb(240, 72, 100);"></circle>
                <circle cx="-41.98171506539747" cy="13.640686106385365" r="4" style="fill: rgb(240, 72, 100);"></circle>
                <circle cx="-46.1053246299259" cy="63.45853525808428" r="4" style="fill: rgb(240, 72, 100);"></circle>
            </g>
        </g>
    </g>
</svg>