<svg xmlns="http://www.w3.org/2000/svg" viewBox="0 0 211.54 61.5"><defs><style>.cls-1{fill:#fff;}</style></defs><title>资源 1</title><g id="图层_2" data-name="图层 2"><g id="图层_1-2" data-name="图层 1"><g id="图层_2-2" data-name="图层 2"><g id="图层_1-2-2" data-name="图层 1-2"><g id="I"><polygon class="cls-1" points="0 0 0 12.22 0 24.58 0 61.46 12.31 61.46 12.31 0 0 0"/></g><g id="S"><path id="Shape" class="cls-1" d="M62.25,24.59h-25a6.15,6.15,0,0,1-.5-12.29h39.5L80.71,0H37.28a18.44,18.44,0,1,0,0,36.88h25a6.15,6.15,0,0,1,.5,12.29h-44V61.49H62.25a18.44,18.44,0,0,0,.86-36.87h-.86Z"/></g><g id="e1"><polygon id="Shape-2" class="cls-1" points="84.22 0 84.22 12.29 141.64 12.29 146.1 0 84.22 0"/><path id="Shape-3" class="cls-1" d="M102.68,49.17h0A6.15,6.15,0,0,1,96.52,43h0V36.87H141.6l4.5-12.28H84.21V43h0a18.49,18.49,0,0,0,18.47,18.47h39l4.46-12.29H102.68Z"/></g><g id="e2"><polygon id="Shape-4" class="cls-1" points="149.61 0 149.61 12.29 207.04 12.29 211.5 0 149.61 0"/><path id="Shape-5" class="cls-1" d="M168.08,49.17h0A6.15,6.15,0,0,1,161.92,43h0V36.87H207l4.46-12.28H149.6V43h0a18.49,18.49,0,0,0,18.48,18.47h39l4.46-12.29H168.08Z"/></g></g></g></g></g></svg>