<?xml version="1.0" standalone="no"?><!DOCTYPE svg PUBLIC "-//W3C//DTD SVG 1.1//EN" "http://www.w3.org/Graphics/SVG/1.1/DTD/svg11.dtd"><svg t="1542788459723" class="icon" style="" viewBox="0 0 1024 1024" version="1.1" xmlns="http://www.w3.org/2000/svg" p-id="6141" xmlns:xlink="http://www.w3.org/1999/xlink" width="64" height="64"><defs><style type="text/css"></style></defs><path d="M911.36 532.48l-204.8 128c-10.24 5.12-25.6 5.12-35.84-10.24 0-5.12-5.12-10.24-5.12-15.36v-256c0-5.12 10.24-20.48 25.6-20.48 5.12 0 10.24 0 15.36 5.12l204.8 128c10.24 5.12 15.36 25.6 10.24 35.84-5.12 0-10.24 5.12-10.24 5.12zM870.4 204.8H153.6c-30.72 0-51.2-20.48-51.2-51.2s20.48-51.2 51.2-51.2h716.8c30.72 0 51.2 20.48 51.2 51.2s-25.6 51.2-51.2 51.2z m-358.4 358.4H153.6c-30.72 0-51.2-20.48-51.2-51.2s20.48-51.2 51.2-51.2h358.4c30.72 0 51.2 20.48 51.2 51.2s-25.6 51.2-51.2 51.2z m358.4 358.4H153.6c-30.72 0-51.2-20.48-51.2-51.2s20.48-51.2 51.2-51.2h716.8c30.72 0 51.2 20.48 51.2 51.2s-25.6 51.2-51.2 51.2z" fill="#1890ff" p-id="6142"></path></svg>