<svg id="图层_1" data-name="图层 1" xmlns="http://www.w3.org/2000/svg" viewBox="0 0 650.26 513.06"><defs><style>.cls-1{fill:none;stroke:#000;}.cls-2,.cls-3,.cls-5{isolation:isolate;}.cls-2{font-size:10px;font-family:Helvetica, Helvetica;}.cls-3,.cls-5{font-size:12px;}.cls-3,.cls-6,.cls-7{font-family:ArialMT, Arial;}.cls-4,.cls-5{font-family:AdobeSongStd-Light-GBpc-EUC-H, Adobe Song Std;}.cls-7{letter-spacing:-0.07em;}.cls-8{font-size:24px;font-family:FZLTZHK--GBK1-0, Lantinghei SC;font-weight:700;}</style></defs><title>paperMatrix</title><path class="cls-1" d="M103.38,295.49V292H720.63v3.5" transform="translate(-77.31 -80.71)"/><line class="cls-1" x1="26.06" y1="210.78" x2="26.06" y2="214.78"/><text class="cls-2" transform="translate(19.11 224.88)">0.0</text><line class="cls-1" x1="103.22" y1="210.78" x2="103.22" y2="214.78"/><text class="cls-2" transform="translate(96.27 224.88)">0.5</text><line class="cls-1" x1="180.37" y1="210.78" x2="180.37" y2="214.78"/><text class="cls-2" transform="translate(173.42 224.88)">1.0</text><line class="cls-1" x1="257.53" y1="210.78" x2="257.53" y2="214.78"/><text class="cls-2" transform="translate(250.58 224.88)">1.5</text><line class="cls-1" x1="334.69" y1="210.78" x2="334.69" y2="214.78"/><text class="cls-2" transform="translate(327.73 224.88)">2.0</text><line class="cls-1" x1="411.84" y1="210.78" x2="411.84" y2="214.78"/><text class="cls-2" transform="translate(404.89 224.88)">2.5</text><line class="cls-1" x1="489" y1="210.78" x2="489" y2="214.78"/><text class="cls-2" transform="translate(482.05 224.88)">3.0</text><line class="cls-1" x1="566.15" y1="210.78" x2="566.15" y2="214.78"/><text class="cls-2" transform="translate(559.2 224.88)">3.5</text><line class="cls-1" x1="643.31" y1="210.78" x2="643.31" y2="214.78"/><text class="cls-2" transform="translate(636.36 224.88)">4.0</text><path class="cls-1" d="M303.22,82.13h4.5V574.88h-4.5" transform="translate(-77.31 -80.71)"/><path class="cls-1" d="M176,82.63" transform="translate(-77.31 -80.71)"/><path class="cls-1" d="M180,82.63" transform="translate(-77.31 -80.71)"/><text class="cls-2" transform="translate(217.63 8.59)">6</text><line class="cls-1" x1="230.19" y1="59.84" x2="226.19" y2="59.84"/><text class="cls-2" transform="translate(217.63 63.04)">5</text><line class="cls-1" x1="230.19" y1="114.59" x2="226.19" y2="114.59"/><text class="cls-2" transform="translate(217.63 117.79)">4</text><line class="cls-1" x1="230.19" y1="169.34" x2="226.19" y2="169.34"/><text class="cls-2" transform="translate(217.63 172.54)">3</text><line class="cls-1" x1="230.04" y1="214.78" x2="226.04" y2="214.78"/><text class="cls-2" transform="translate(217.63 218.76)">2</text><line class="cls-1" x1="229.24" y1="273.07" x2="225.24" y2="273.07"/><text class="cls-2" transform="translate(216.68 276.27)">1</text><line class="cls-1" x1="229.24" y1="327.82" x2="225.24" y2="327.82"/><text class="cls-2" transform="translate(216.68 331.02)">0</text><line class="cls-1" x1="229.24" y1="382.57" x2="225.24" y2="382.57"/><text class="cls-2" transform="translate(213.35 385.77)">-1</text><line class="cls-1" x1="229.24" y1="437.32" x2="225.24" y2="437.32"/><text class="cls-2" transform="translate(213.35 440.52)">-2</text><line class="cls-1" x1="225.91" y1="494.17" x2="221.91" y2="494.17"/><text class="cls-2" transform="translate(213.35 494.17)">-3</text><rect class="cls-1" x="25.56" y="1.42" width="617.25" height="492.75"/><text class="cls-3" transform="translate(228.16 509.17)">2012-2016<tspan class="cls-4" x="57.39" y="0">年学科产出论文占全球份额（单位</tspan><tspan x="237.39" y="0">%</tspan><tspan class="cls-4" x="248.06" y="0">）</tspan></text><text class="cls-5" transform="translate(10.56 383.23) rotate(-90)">学科论文被引频次增长率（<tspan class="cls-6" x="144" y="0">2012-2016</tspan><tspan x="201.39" y="0">年相比于</tspan><tspan class="cls-6" x="249.39" y="0">2007-20</tspan><tspan class="cls-7" x="293.43" y="0">1</tspan><tspan class="cls-6" x="299.21" y="0">1</tspan><tspan x="305.88" y="0">年</tspan><tspan class="cls-6" x="317.88" y="0">)</tspan></text><text class="cls-8" transform="translate(391.12 113.92)">优势学科</text><text class="cls-8" transform="translate(404.19 359.45)">传统学科</text><text class="cls-8" transform="translate(76.87 113.92)">潜力学科</text><text class="cls-8" transform="translate(76.87 352.92)">弱势学科</text></svg>