<?xml version="1.0" standalone="no"?><!DOCTYPE svg PUBLIC "-//W3C//DTD SVG 1.1//EN" "http://www.w3.org/Graphics/SVG/1.1/DTD/svg11.dtd"><svg t="1540791222371" class="icon" style="" viewBox="0 0 1024 1024" version="1.1" xmlns="http://www.w3.org/2000/svg" p-id="7014" xmlns:xlink="http://www.w3.org/1999/xlink" width="200" height="200"><defs><style type="text/css"></style></defs><path d="M993.132 495.107c-5.812-24.228-26.187-69.218-41.55-100.389-26.721-54.197-58.478-95.83-79.436-106.571-10.868-6.236-24.268-8.583-39.819-11.983-10.595-2.316-11.158-19.477-30.394-25.042 33.651-6.38 59.102-35.889 59.102-71.351 0-40.121-32.569-72.648-72.753-72.648-40.172 0-72.746 32.527-72.746 72.648 0 35.225 25.103 64.583 58.413 71.231-20.823 5.397-20.116 22.631-32.065 25.912-21.382 5.878-39.361 9.641-51.599 26.04-4.955 5.015-10.155 11.014-15.486 17.845-24.021-38.583-48.34-66.393-66.123-75.509-12.926-7.421-28.873-10.214-47.386-14.262-12.611-2.758-13.277-23.181-36.166-29.796 40.055-7.598 70.33-42.714 70.33-84.914 0-47.747-38.761-86.457-86.579-86.457-47.813 0-86.575 38.709-86.575 86.457 0 41.916 29.874 76.855 69.521 84.766-24.789 6.423-23.952 26.933-38.163 30.839-25.444 6.992-46.849 11.473-61.403 30.987-13.498 13.662-28.532 33.407-43.467 57.327-12.503-15.929-24.261-27.209-33.79-32.092-10.861-6.236-24.26-8.585-39.814-11.983-10.597-2.318-11.157-19.477-30.396-25.042 33.655-6.381 59.103-35.889 59.103-71.352 0-40.121-32.572-72.648-72.751-72.648-40.179 0-72.747 32.527-72.747 72.648 0 35.225 25.101 64.583 58.413 71.231-20.828 5.397-20.123 22.63-32.063 25.911-21.383 5.878-39.363 9.642-51.601 26.04-18.773 19.001-41.089 52.002-60.69 91.763-15.366 31.17-35.738 76.16-41.546 100.387-6.968 29.08 0.874 36.931 10.611 41.716 10.014 4.922 22.209 5.594 41.676-18.939 9.083-11.451 20.444-58.097 33.652-51.311 19.197 7.359 10.858 47.158 7.645 63.286-3.209 16.12-1.293 55.864-1.756 72.124-0.462 16.258-1.016 52.682-1.506 78.946-1.097 58.713-7.284 159.394-1.16 200.446 3.804 32.771 16.534 38.808 30.446 38.772 16.119-0.036 26.659-2.607 32.375-40.32 6.133-40.474 8.451-126.229 11.327-146.494 2.873-20.266 7.866-84.049 7.984-108.586 0-11.573 10.834-22.95 28.941-22.95 18.966 0 29.231 11.958 29.231 22.359-0.59 24.309 2.475 100.17 2.279 110.57-1.093 58.708 2.747 103.487 8.87 144.541 3.804 32.781 14.427 40.915 28.343 40.879 16.119-0.036 27.964-1.304 33.681-39.019 6.131-40.474 3.308-141.981 4.364-198.7 0.518-27.69-1.398-92.345-1.398-92.345s-1.41-76.593 19.855-76.593c24.888 0 23.753 74.557 23.753 74.557s0.301 11.373-0.25 30.729c-0.554 19.349-1.211 62.689-1.793 93.952-1.301 69.862-8.669 189.688-1.382 238.532 4.528 39.007 19.677 46.188 36.236 46.148 19.18-0.046 31.722-3.1 38.523-47.982 7.302-48.173 10.06-150.224 13.482-174.335 3.417-24.126 9.359-100.021 9.502-129.239 0-13.748 12.892-27.313 34.441-27.313 22.573 0 34.787 14.241 34.787 26.623-0.701 28.925 2.944 119.207 2.717 131.586-1.3 69.86 3.264 123.155 10.553 172.014 4.527 39 17.174 48.686 33.728 48.646 19.186-0.046 33.278-1.55 40.085-46.434 7.295-48.171 3.935-168.966 5.19-236.476 0.614-32.953 2.212-91.672 0.934-121.031-0.317-7.353-0.638-18.138-1.071-24.413 0.169-2.336 0.195-50.938 22.596-51.951 22.396-1.015 23.237 55.593 23.237 55.593s-1.293 13.022-1.758 29.283c-0.458 16.258-1.016 52.683-1.504 78.946-1.099 58.713-7.282 159.394-1.163 200.446 3.806 32.771 16.537 38.809 30.448 38.773 16.123-0.037 26.66-2.608 32.376-40.321 6.132-40.474 8.453-126.229 11.324-146.494 2.872-20.266 7.866-84.048 7.985-108.588 0-11.572 10.844-22.948 28.941-22.948 18.964 0 29.237 11.957 29.237 22.359-0.596 24.309 2.469 100.17 2.276 110.569-1.094 58.709 2.743 103.488 8.868 144.543 3.805 32.78 14.429 40.915 28.343 40.878 16.123-0.036 27.964-1.303 33.679-39.019 6.133-40.474 3.309-141.981 4.367-198.7 0.512-27.69 1.852-77.029 0.782-101.709-0.267-6.189-0.536-46.09-0.904-51.364 1.132-15.143-12.687-62.261 4.992-70.973 12.574-5.522 30.619 46.511 40.92 59.5 19.462 24.532 31.657 23.859 41.677 18.938C992.254 532.036 1000.104 524.185 993.132 495.107zM249.878 323.217c-9.221 13.381-18.436 27.983-18.436 27.983s-17.538-20.743-24.707-30.47c-7.169-9.729-14.637-23.468-11.109-38.477 4.922-18.188 17.894-24.836 35.903-24.836 18.008 0 21.924 7.781 26.117 12.251 4.191 4.469 6.753 12.241 6.753 20.204C264.398 297.833 259.095 309.832 249.878 323.217zM524.688 264.073c-2.904 6.259 14.872 106.01 14.086 116.123-0.797 10.11-4.299 24.907-11.544 34.171-3.455 4.426-10.69 12.534-15.608 12.534-4.919 0-14.825-7.173-18.606-12.286-7.244-9.794-11.256-21.883-11.766-32.161-0.509-10.278 12.245-111.417 9.588-117.279-4.064-8.977-26.769-16.092-24.227-26.899 5.855-21.65 21.293-29.556 42.725-29.556 21.437 0 35.321 11.177 39.118 28.575C550.027 246.565 528.178 256.552 524.688 264.073zM807.02 323.217c-9.217 13.381-18.438 27.983-18.438 27.983s-17.535-20.743-24.708-30.47c-7.166-9.729-14.64-23.468-11.104-38.477 4.918-18.188 17.889-24.836 35.898-24.836s21.926 7.781 26.12 12.251c4.188 4.469 6.748 12.241 6.748 20.204C821.537 297.833 816.234 309.832 807.02 323.217z" p-id="7015" fill="#0073Ab"></path></svg>