<?xml version="1.0" standalone="no"?><!DOCTYPE svg PUBLIC "-//W3C//DTD SVG 1.1//EN" "http://www.w3.org/Graphics/SVG/1.1/DTD/svg11.dtd"><svg t="1540791115799" class="icon" style="" viewBox="0 0 1024 1024" version="1.1" xmlns="http://www.w3.org/2000/svg" p-id="2217" xmlns:xlink="http://www.w3.org/1999/xlink" width="200" height="200"><defs><style type="text/css"></style></defs><path d="M980.860928 204.100608c-9.506816 12.397568-23.384064 10.638336-29.582336-2.738176-7.405568-15.955968-23.441408-15.634432-36.10624-15.490048-15.854592 0.186368-22.523904-7.672832-29.581312-17.816576-8.223744-11.862016-16.714752-23.56224-24.979456-35.427328-7.553024-10.805248-17.083392-17.533952-31.710208-15.13984-2.80064 0.447488-5.914624 0-7.240704-3.231744l-10.678272 0c-5.137408 6.587392-12.931072 5.690368-20.236288 7.161856-9.797632 1.961984-23.200768 10.843136-16.4096 17.610752 11.436032 11.393024 4.114432 18.30912 0.760832 27.394048-2.270208 6.13888-5.746688 12.3136-6.078464 18.573312-0.961536 18.28864-7.117824 24.508416-26.102784 23.17824-3.351552-0.224256-7.114752-2.67776-8.853504 1.41312-5.138432 12.171264-11.988992 23.970816-11.76576 37.600256 0.098304 6.62528 3.680256 8.833024 10.231808 5.354496 9.777152-5.234688 21.066752-2.040832 31.863808-5.92896 11.952128-4.314112 20.463616 7.402496 27.15136 16.24064 3.823616 5.031936-0.590848 6.586368-5.504 6.669312-22.72768 0.4096-39.630848 9.740288-50.691072 28.883968-2.745344 4.748288-7.3216 8.73984-14.424064 8.119296-3.16928-0.283648-7.876608-1.449984-9.122816 2.781184-5.256192 17.983488-17.038336 13.93664-29.684736 8.530944-5.03296-2.166784-10.779648-2.944-14.464 1.928192-3.293184 4.335616-5.622784 9.652224-2.86208 15.179776 2.188288 4.373504 5.030912 8.425472 7.752704 12.926976-5.234688 3.1488-11.964416 2.721792-15.158272 8.141824-10.802176 18.371584-28.581888 22.37952-48.809984 21.168128-10.149888-0.592896-20.913152-0.7936-28.750848 5.628928-18.629632 15.29856-37.6576 9.368576-56.947712 2.700288-15.469568-5.359616-27.416576-19.23072-46.849024-15.2832-20.64384 4.195328-40.404992-3.738624-60.532736-6.526976-3.027968-0.427008-5.13536-0.816128-6.24128-4.337664-5.354496-16.995328-15.793152-30.109696-31.013888-41.010176-9.795584-7.020544-18.409472-12.397568-31.279104-12.21632-21.889024 0.328704-24.15616-3.964928-14.38208-22.948864 8.656896-16.7936-0.449536-40.195072-18.879488-47.664128-8.49408-3.439616-13.727744-10.107904-14.077952-17.719296-0.651264-14.296064-15.56992-10.513408-16.959488-8.428544-5.868544 8.778752-15.340544 9.353216-23.379968 13.30176-2.558976 1.26464-4.07552 5.256192-5.175296 8.305664-7.370752 19.920896-7.593984 20.517888-28.148736 10.268672-9.862144-4.912128-15.12448-4.764672-19.745792 5.771264-7.693312 17.467392-16.920576 33.629184-42.4704 25.895936-4.560896-1.393664-13.27616-0.862208-12.0064 5.6064 3.595264 18.533376 1.531904 33.630208-11.252736 49.951744-6.07744 7.776256-9.331712 10.887168-18.678784 11.904-18.883584 2.02752-39.094272 0.514048-54.332416 14.974976-2.802688 2.661376-7.40864 2.536448-9.68192-0.036864-10.49088-11.845632-22.2976-3.193856-32.382976-0.904192-10.063872 2.294784-11.925504 13.630464-15.628288 22.257664-1.695744 3.92704 0.838656 4.97152 2.842624 6.342656 16.651264 11.414528 17.697792 25.450496 1.80224 40.178688 11.12576 0.569344 18.167808 9.286656 17.12128 15.729664-2.601984 15.935488 9.718784 20.719616 18.880512 27.02336 6.87616 4.704256 8.737792 9.489408 11.332608 16.65024 3.582976 9.900032 6.58944 17.96096 5.466112 29.46048-1.614848 16.590848 1.330176 16.852992-11.312128 24.157184-0.493568 0.284672-0.77824 0.836608-1.166336 1.26464-3.61984 4.132864 0.344064 33.307648 6.153216 34.714624 17.757184 4.296704 19.970048 34.07872 45.743104 24.531968 3.417088-1.294336 3.46112 3.679232 5.27872 5.53984 18.108416 18.699264 35.656704 37.885952 55.768064 54.745088 13.136896 10.96192 29.540352 13.175808 45.637632 13.010944 12.278784-0.128 19.29216 2.496512 20.905984 14.355456 10.887168-1.75616 11.523072-16.897024 23.979008-16.508928 14.548992 0.454656 35.782656 17.818624 39.134208 33.287168 1.389568 6.421504 5.157888 5.929984 9.86112 6.46144 20.151296 2.295808 33.429504-11.695104 48.87552-19.530752 12.008448-6.078464 22.01088-7.878656 33.242112-1.045504 6.340608 3.851264 11.334656 7.431168 17.248256-1.389568 5.234688-7.815168 11.700224-8.756224 13.251584 2.825216 0.596992 4.457472 3.766272 6.669312 6.198272 9.736192 8.454144 10.697728 6.204416 35.431424-4.374528 43.655168-12.275712 9.53344-20.43904 20.248576-15.404032 36.943872 13.70624-5.808128 26.058752-8.613888 25.961472 12.377088 0 2.271232 1.80224 7.832576 7.732224 7.565312 3.438592-0.162816 5.315584 1.557504 3.908608 5.323776-2.516992 6.668288-13.277184 14.743552 3.679232 18.264064 8.163328 1.698816 11.454464 14.507008 22.788096 9.616384 4.441088-1.922048 7.95648-1.840128 9.803776 2.842624 1.777664 4.605952 4.67968 9.121792 9.921536 7.057408 6.258688-2.451456-0.47104-8.141824 1.388544-12.763136 2.065408-5.075968-4.402176-13.953024 3.457024-16.16384 10.615808-2.947072 23.160832-5.563392 33.260544-2.902016 6.71232 1.779712 12.2368 1.73056 17.16736 0.5632-21.727232-33.067008-34.47296-72.170496-34.47296-114.220032 0-118.119424 99.198976-213.854208 221.596672-213.854208 38.475776 0 74.647552 9.494528 106.175488 26.146816 9.925632-13.727744 19.024896-28.23168 37.843968-33.429504 5.424128-1.511424 5.481472-5.069824 5.481472-9.083904 0-3.760128-2.701312-4.57728-5.848064-4.56192-17.370112 0.16384-36.783104-8.179712-48.872448 12.419072-4.422656 7.528448-12.191744 3.888128-11.926528-2.435072 0.529408-13.76768-7.205888-14.342144-17.696768-13.519872-5.989376 0.448512-10.658816-1.595392-11.25376-7.940096-0.283648-3.027968-1.569792-7.23968 3.089408-8.465408 24.696832-6.421504 34.41664-26.802176 46.399488-44.86144 3.966976-5.97504 9.632768-7.940096 14.76608-5.339136 4.364288 2.20672 8.430592 7.282688 4.257792 13.86496-2.598912 4.134912-4.501504 9.127936-4.967424 13.891584-0.594944 5.951488-1.39264 16.09728 1.368064 17.307648 7.012352 3.089408 9.979904-4.50048 13.421568-9.675776 3.392512-5.173248 7.728128-9.944064 13.868032-12.522496 23.651328-9.93792 34.855936-30.521344 47.381504-49.90976 3.2512-5.031936 4.743168-10.189824 12.291072-3.520512 7.529472 6.670336 18.49856-2.20672 17.224704-4.335616-5.933056-9.795584 3.422208-10.804224 7.365632-13.377536 9.00096-5.85216 13.130752-15.22176 24.900608-20.539392 17.447936-7.856128 4.440064-25.472-0.06144-38.356992-4.586496-13.075456-2.399232-21.295104 13.333504-21.398528 6.56896-0.02048 9.0624-3.700736 12.626944-7.03488L1013.604352 178.28864C1001.601024 185.63072 989.780992 192.48128 980.860928 204.100608L980.860928 204.100608zM778.988544 512.238592l0 165.844992 167.58272 0C946.572288 678.083584 946.572288 512.238592 778.988544 512.238592L778.988544 512.238592zM745.45664 545.399808l-7.345152 0c-3.288064-0.427008-6.560768-0.979968-9.982976-0.979968-3.41504 0-6.58944 0.816128-9.961472 0.979968l-6.224896 0 0 0.63488c-94.340096 8.246272-168.58624 85.732352-168.58624 181.226496 0 100.973568 82.72896 182.839296 184.771584 182.839296 96.111616 0 174.17216-72.86272 183.03488-165.694464l1.882112 0 0-33.16224L745.45664 711.243776 745.45664 545.399808 745.45664 545.399808zM876.099584 744.406016c-8.676352 73.637888-71.21408 131.001344-147.946496 131.001344-82.691072 0-149.711872-66.320384-149.711872-148.146176 0-76.30336 58.548224-138.413056 133.500928-146.511872l0 163.648512 164.15744 0L876.099584 744.406016zM876.099584 744.406016" p-id="2218" fill="#0073Ab"></path></svg>