<?xml version="1.0" encoding="utf-8"?>
<!-- Generator: Adobe Illustrator 21.0.0, SVG Export Plug-In . SVG Version: 6.00 Build 0)  -->
<svg version="1.1" xmlns="http://www.w3.org/2000/svg" xmlns:xlink="http://www.w3.org/1999/xlink" x="0px" y="0px"
	 viewBox="0 0 336.9 110" style="enable-background:new 0 0 336.9 110;" xml:space="preserve" height="40">
<style type="text/css">
	.st0{fill:#1890FF;stroke:#1890FF;stroke-width:0.9545;stroke-miterlimit:10;}
	.st1{fill:#FFFFFF;}
	.st2{fill:#1890FF;}
	.st3{fill:#1890FF;stroke:#FFF;stroke-miterlimit:10;}
</style>
<title>isee</title>
<g id="layer">
	<g id="layer-01">
		<circle class="st0" cx="55" cy="55" r="52.5"/>
		<circle class="st1" cx="55" cy="55" r="42.5"/>
		<circle class="st2" cx="55" cy="55" r="25"/>
		<circle class="st1" cx="61" cy="45" r="10"/>
		<circle class="st1" cx="50.3" cy="65.3" r="5"/>
		<g id="I">
			<polygon class="st3" points="125.4,27.5 125.4,39.7 125.4,52.1 125.4,89 137.7,89 137.7,27.5 			"/>
		</g>
		<g id="S">
			<path id="Shape" class="st3" d="M187.6,52.1h-25c-3.4,0.1-6.3-2.5-6.4-5.9c-0.1-3.4,2.5-6.3,5.9-6.4c0.2,0,0.3,0,0.5,0h39
				l4.5-12.3h-43.4c-10.2,0-18.4,8.2-18.4,18.4s8.2,18.4,18.4,18.4l0,0h25c3.4-0.1,6.3,2.5,6.4,5.9c0.1,3.4-2.5,6.3-5.9,6.4
				c-0.2,0-0.3,0-0.5,0h-43.5V89h43.4c10.2,0.2,18.6-7.8,18.9-18c0.2-10.2-7.8-18.6-18-18.9C188.2,52.1,187.9,52.1,187.6,52.1
				L187.6,52.1z"/>
		</g>
		<g id="e1">
			<polygon id="Shape-2" class="st3" points="209.6,27.5 209.6,39.8 267,39.8 271.5,27.5 			"/>
			<path id="Shape-3" class="st3" d="M228.1,76.7L228.1,76.7c-3.4,0-6.2-2.7-6.2-6.1l0,0l0,0v-6.2H267l4.5-12.3h-61.9v18.4l0,0
				c0,2.1,0.4,4.2,1.1,6.2c2.6,7.4,9.6,12.3,17.4,12.3h39l4.5-12.3H228.1L228.1,76.7z"/>
		</g>
		<g id="e2">
			<polygon id="Shape-4" class="st3" points="275,27.5 275,39.8 332.4,39.8 336.9,27.5 			"/>
			<path id="Shape-5" class="st3" d="M293.5,76.7L293.5,76.7c-3.4,0-6.2-2.7-6.2-6.1l0,0l0,0v-6.2h45.1l4.5-12.3H275v18.4l0,0
				c0,2.1,0.4,4.2,1.1,6.2c2.6,7.4,9.6,12.3,17.4,12.3h39l4.5-12.3H293.5L293.5,76.7z"/>
		</g>
	</g>
</g>
</svg>
